solid OpenSCAD_Model
  facet normal 0.258868 -0.965913 0
    outer loop
      vertex -29.0472 -25.4965 -1.5
      vertex -28.7778 -25.4243 1.5
      vertex -29.0472 -25.4965 1.5
    endloop
  endfacet
  facet normal 0.258868 -0.965913 0
    outer loop
      vertex -28.7778 -25.4243 1.5
      vertex -29.0472 -25.4965 -1.5
      vertex -28.7778 -25.4243 -1.5
    endloop
  endfacet
  facet normal -0.965913 -0.258868 0
    outer loop
      vertex -26.9243 -26.7222 -1.5
      vertex -26.9965 -26.4528 1.5
      vertex -26.9965 -26.4528 -1.5
    endloop
  endfacet
  facet normal -0.965913 -0.258868 0
    outer loop
      vertex -26.9965 -26.4528 1.5
      vertex -26.9243 -26.7222 -1.5
      vertex -26.9243 -26.7222 1.5
    endloop
  endfacet
  facet normal -0.996196 -0.0871403 0
    outer loop
      vertex -26.9 -27 -1.5
      vertex -26.9243 -26.7222 1.5
      vertex -26.9243 -26.7222 -1.5
    endloop
  endfacet
  facet normal -0.996196 -0.0871403 0
    outer loop
      vertex -26.9243 -26.7222 1.5
      vertex -26.9 -27 -1.5
      vertex -26.9 -27 1.5
    endloop
  endfacet
  facet normal -0.906284 -0.42267 0
    outer loop
      vertex -26.9965 -26.4528 -1.5
      vertex -27.1144 -26.2 1.5
      vertex -27.1144 -26.2 -1.5
    endloop
  endfacet
  facet normal -0.906284 -0.42267 0
    outer loop
      vertex -27.1144 -26.2 1.5
      vertex -26.9965 -26.4528 -1.5
      vertex -26.9965 -26.4528 1.5
    endloop
  endfacet
  facet normal -0.573342 0.819316 0
    outer loop
      vertex -27.4715 -28.2257 -1.5
      vertex -27.7 -28.3856 1.5
      vertex -27.4715 -28.2257 1.5
    endloop
  endfacet
  facet normal -0.573342 0.819316 0
    outer loop
      vertex -27.7 -28.3856 1.5
      vertex -27.4715 -28.2257 -1.5
      vertex -27.7 -28.3856 -1.5
    endloop
  endfacet
  facet normal 0.42267 -0.906284 0
    outer loop
      vertex -29.3 -25.6144 -1.5
      vertex -29.0472 -25.4965 1.5
      vertex -29.3 -25.6144 1.5
    endloop
  endfacet
  facet normal 0.42267 -0.906284 0
    outer loop
      vertex -29.0472 -25.4965 1.5
      vertex -29.3 -25.6144 -1.5
      vertex -29.0472 -25.4965 -1.5
    endloop
  endfacet
  facet normal -0.996196 0.0871403 0
    outer loop
      vertex -26.9243 -27.2778 -1.5
      vertex -26.9 -27 1.5
      vertex -26.9 -27 -1.5
    endloop
  endfacet
  facet normal -0.996196 0.0871403 0
    outer loop
      vertex -26.9 -27 1.5
      vertex -26.9243 -27.2778 -1.5
      vertex -26.9243 -27.2778 1.5
    endloop
  endfacet
  facet normal -0.819316 -0.573342 0
    outer loop
      vertex -27.1144 -26.2 -1.5
      vertex -27.2743 -25.9715 1.5
      vertex -27.2743 -25.9715 -1.5
    endloop
  endfacet
  facet normal -0.819316 -0.573342 0
    outer loop
      vertex -27.2743 -25.9715 1.5
      vertex -27.1144 -26.2 -1.5
      vertex -27.1144 -26.2 1.5
    endloop
  endfacet
  facet normal -0.0871403 -0.996196 0
    outer loop
      vertex -28.5 -25.4 -1.5
      vertex -28.2222 -25.4243 1.5
      vertex -28.5 -25.4 1.5
    endloop
  endfacet
  facet normal -0.0871403 -0.996196 -0
    outer loop
      vertex -28.2222 -25.4243 1.5
      vertex -28.5 -25.4 -1.5
      vertex -28.2222 -25.4243 -1.5
    endloop
  endfacet
  facet normal 0.707107 -0.707107 0
    outer loop
      vertex -29.7257 -25.9715 1.5
      vertex -29.5285 -25.7743 -1.5
      vertex -29.5285 -25.7743 1.5
    endloop
  endfacet
  facet normal 0.707107 -0.707107 0
    outer loop
      vertex -29.5285 -25.7743 -1.5
      vertex -29.7257 -25.9715 1.5
      vertex -29.7257 -25.9715 -1.5
    endloop
  endfacet
  facet normal 0.573342 0.819316 -0
    outer loop
      vertex -29.3 -28.3856 -1.5
      vertex -29.5285 -28.2257 1.5
      vertex -29.3 -28.3856 1.5
    endloop
  endfacet
  facet normal 0.573342 0.819316 0
    outer loop
      vertex -29.5285 -28.2257 1.5
      vertex -29.3 -28.3856 -1.5
      vertex -29.5285 -28.2257 -1.5
    endloop
  endfacet
  facet normal 0.573342 -0.819316 0
    outer loop
      vertex -29.5285 -25.7743 -1.5
      vertex -29.3 -25.6144 1.5
      vertex -29.5285 -25.7743 1.5
    endloop
  endfacet
  facet normal 0.573342 -0.819316 0
    outer loop
      vertex -29.3 -25.6144 1.5
      vertex -29.5285 -25.7743 -1.5
      vertex -29.3 -25.6144 -1.5
    endloop
  endfacet
  facet normal -0.42267 0.906284 0
    outer loop
      vertex -27.7 -28.3856 -1.5
      vertex -27.9528 -28.5035 1.5
      vertex -27.7 -28.3856 1.5
    endloop
  endfacet
  facet normal -0.42267 0.906284 0
    outer loop
      vertex -27.9528 -28.5035 1.5
      vertex -27.7 -28.3856 -1.5
      vertex -27.9528 -28.5035 -1.5
    endloop
  endfacet
  facet normal -0.258868 -0.965913 0
    outer loop
      vertex -28.2222 -25.4243 -1.5
      vertex -27.9528 -25.4965 1.5
      vertex -28.2222 -25.4243 1.5
    endloop
  endfacet
  facet normal -0.258868 -0.965913 -0
    outer loop
      vertex -27.9528 -25.4965 1.5
      vertex -28.2222 -25.4243 -1.5
      vertex -27.9528 -25.4965 -1.5
    endloop
  endfacet
  facet normal 0.965913 0.258868 0
    outer loop
      vertex -30.0035 -27.5472 1.5
      vertex -30.0757 -27.2778 -1.5
      vertex -30.0757 -27.2778 1.5
    endloop
  endfacet
  facet normal 0.965913 0.258868 0
    outer loop
      vertex -30.0757 -27.2778 -1.5
      vertex -30.0035 -27.5472 1.5
      vertex -30.0035 -27.5472 -1.5
    endloop
  endfacet
  facet normal -0.965913 0.258868 0
    outer loop
      vertex -26.9965 -27.5472 -1.5
      vertex -26.9243 -27.2778 1.5
      vertex -26.9243 -27.2778 -1.5
    endloop
  endfacet
  facet normal -0.965913 0.258868 0
    outer loop
      vertex -26.9243 -27.2778 1.5
      vertex -26.9965 -27.5472 -1.5
      vertex -26.9965 -27.5472 1.5
    endloop
  endfacet
  facet normal 0.965913 -0.258868 0
    outer loop
      vertex -30.0757 -26.7222 1.5
      vertex -30.0035 -26.4528 -1.5
      vertex -30.0035 -26.4528 1.5
    endloop
  endfacet
  facet normal 0.965913 -0.258868 0
    outer loop
      vertex -30.0035 -26.4528 -1.5
      vertex -30.0757 -26.7222 1.5
      vertex -30.0757 -26.7222 -1.5
    endloop
  endfacet
  facet normal -0.42267 -0.906284 0
    outer loop
      vertex -27.9528 -25.4965 -1.5
      vertex -27.7 -25.6144 1.5
      vertex -27.9528 -25.4965 1.5
    endloop
  endfacet
  facet normal -0.42267 -0.906284 -0
    outer loop
      vertex -27.7 -25.6144 1.5
      vertex -27.9528 -25.4965 -1.5
      vertex -27.7 -25.6144 -1.5
    endloop
  endfacet
  facet normal 0.819316 0.573342 0
    outer loop
      vertex -29.7257 -28.0285 1.5
      vertex -29.8856 -27.8 -1.5
      vertex -29.8856 -27.8 1.5
    endloop
  endfacet
  facet normal 0.819316 0.573342 0
    outer loop
      vertex -29.8856 -27.8 -1.5
      vertex -29.7257 -28.0285 1.5
      vertex -29.7257 -28.0285 -1.5
    endloop
  endfacet
  facet normal -0.258868 0.965913 0
    outer loop
      vertex -27.9528 -28.5035 -1.5
      vertex -28.2222 -28.5757 1.5
      vertex -27.9528 -28.5035 1.5
    endloop
  endfacet
  facet normal -0.258868 0.965913 0
    outer loop
      vertex -28.2222 -28.5757 1.5
      vertex -27.9528 -28.5035 -1.5
      vertex -28.2222 -28.5757 -1.5
    endloop
  endfacet
  facet normal 0.906284 0.42267 0
    outer loop
      vertex -29.8856 -27.8 1.5
      vertex -30.0035 -27.5472 -1.5
      vertex -30.0035 -27.5472 1.5
    endloop
  endfacet
  facet normal 0.906284 0.42267 0
    outer loop
      vertex -30.0035 -27.5472 -1.5
      vertex -29.8856 -27.8 1.5
      vertex -29.8856 -27.8 -1.5
    endloop
  endfacet
  facet normal 0.819316 -0.573342 0
    outer loop
      vertex -29.8856 -26.2 1.5
      vertex -29.7257 -25.9715 -1.5
      vertex -29.7257 -25.9715 1.5
    endloop
  endfacet
  facet normal 0.819316 -0.573342 0
    outer loop
      vertex -29.7257 -25.9715 -1.5
      vertex -29.8856 -26.2 1.5
      vertex -29.8856 -26.2 -1.5
    endloop
  endfacet
  facet normal -0.906284 0.42267 0
    outer loop
      vertex -27.1144 -27.8 -1.5
      vertex -26.9965 -27.5472 1.5
      vertex -26.9965 -27.5472 -1.5
    endloop
  endfacet
  facet normal -0.906284 0.42267 0
    outer loop
      vertex -26.9965 -27.5472 1.5
      vertex -27.1144 -27.8 -1.5
      vertex -27.1144 -27.8 1.5
    endloop
  endfacet
  facet normal 0.906284 -0.42267 0
    outer loop
      vertex -30.0035 -26.4528 1.5
      vertex -29.8856 -26.2 -1.5
      vertex -29.8856 -26.2 1.5
    endloop
  endfacet
  facet normal 0.906284 -0.42267 0
    outer loop
      vertex -29.8856 -26.2 -1.5
      vertex -30.0035 -26.4528 1.5
      vertex -30.0035 -26.4528 -1.5
    endloop
  endfacet
  facet normal -0.707107 -0.707107 0
    outer loop
      vertex -27.2743 -25.9715 -1.5
      vertex -27.4715 -25.7743 1.5
      vertex -27.4715 -25.7743 -1.5
    endloop
  endfacet
  facet normal -0.707107 -0.707107 0
    outer loop
      vertex -27.4715 -25.7743 1.5
      vertex -27.2743 -25.9715 -1.5
      vertex -27.2743 -25.9715 1.5
    endloop
  endfacet
  facet normal -0.707107 0.707107 0
    outer loop
      vertex -27.4715 -28.2257 -1.5
      vertex -27.2743 -28.0285 1.5
      vertex -27.2743 -28.0285 -1.5
    endloop
  endfacet
  facet normal -0.707107 0.707107 0
    outer loop
      vertex -27.2743 -28.0285 1.5
      vertex -27.4715 -28.2257 -1.5
      vertex -27.4715 -28.2257 1.5
    endloop
  endfacet
  facet normal -0.573342 -0.819316 0
    outer loop
      vertex -27.7 -25.6144 -1.5
      vertex -27.4715 -25.7743 1.5
      vertex -27.7 -25.6144 1.5
    endloop
  endfacet
  facet normal -0.573342 -0.819316 -0
    outer loop
      vertex -27.4715 -25.7743 1.5
      vertex -27.7 -25.6144 -1.5
      vertex -27.4715 -25.7743 -1.5
    endloop
  endfacet
  facet normal -0.819316 0.573342 0
    outer loop
      vertex -27.2743 -28.0285 -1.5
      vertex -27.1144 -27.8 1.5
      vertex -27.1144 -27.8 -1.5
    endloop
  endfacet
  facet normal -0.819316 0.573342 0
    outer loop
      vertex -27.1144 -27.8 1.5
      vertex -27.2743 -28.0285 -1.5
      vertex -27.2743 -28.0285 1.5
    endloop
  endfacet
  facet normal 0.707107 0.707107 0
    outer loop
      vertex -29.5285 -28.2257 1.5
      vertex -29.7257 -28.0285 -1.5
      vertex -29.7257 -28.0285 1.5
    endloop
  endfacet
  facet normal 0.707107 0.707107 0
    outer loop
      vertex -29.7257 -28.0285 -1.5
      vertex -29.5285 -28.2257 1.5
      vertex -29.5285 -28.2257 -1.5
    endloop
  endfacet
  facet normal -0.0871403 0.996196 0
    outer loop
      vertex -28.2222 -28.5757 -1.5
      vertex -28.5 -28.6 1.5
      vertex -28.2222 -28.5757 1.5
    endloop
  endfacet
  facet normal -0.0871403 0.996196 0
    outer loop
      vertex -28.5 -28.6 1.5
      vertex -28.2222 -28.5757 -1.5
      vertex -28.5 -28.6 -1.5
    endloop
  endfacet
  facet normal 0.258868 0.965913 -0
    outer loop
      vertex -28.7778 -28.5757 -1.5
      vertex -29.0472 -28.5035 1.5
      vertex -28.7778 -28.5757 1.5
    endloop
  endfacet
  facet normal 0.258868 0.965913 0
    outer loop
      vertex -29.0472 -28.5035 1.5
      vertex -28.7778 -28.5757 -1.5
      vertex -29.0472 -28.5035 -1.5
    endloop
  endfacet
  facet normal 0.996196 0.0871403 0
    outer loop
      vertex -30.0757 -27.2778 1.5
      vertex -30.1 -27 -1.5
      vertex -30.1 -27 1.5
    endloop
  endfacet
  facet normal 0.996196 0.0871403 0
    outer loop
      vertex -30.1 -27 -1.5
      vertex -30.0757 -27.2778 1.5
      vertex -30.0757 -27.2778 -1.5
    endloop
  endfacet
  facet normal 0.0871403 -0.996196 0
    outer loop
      vertex -28.7778 -25.4243 -1.5
      vertex -28.5 -25.4 1.5
      vertex -28.7778 -25.4243 1.5
    endloop
  endfacet
  facet normal 0.0871403 -0.996196 0
    outer loop
      vertex -28.5 -25.4 1.5
      vertex -28.7778 -25.4243 -1.5
      vertex -28.5 -25.4 -1.5
    endloop
  endfacet
  facet normal 0.0871403 0.996196 -0
    outer loop
      vertex -28.5 -28.6 -1.5
      vertex -28.7778 -28.5757 1.5
      vertex -28.5 -28.6 1.5
    endloop
  endfacet
  facet normal 0.0871403 0.996196 0
    outer loop
      vertex -28.7778 -28.5757 1.5
      vertex -28.5 -28.6 -1.5
      vertex -28.7778 -28.5757 -1.5
    endloop
  endfacet
  facet normal 0.996196 -0.0871403 0
    outer loop
      vertex -30.1 -27 1.5
      vertex -30.0757 -26.7222 -1.5
      vertex -30.0757 -26.7222 1.5
    endloop
  endfacet
  facet normal 0.996196 -0.0871403 0
    outer loop
      vertex -30.0757 -26.7222 -1.5
      vertex -30.1 -27 1.5
      vertex -30.1 -27 -1.5
    endloop
  endfacet
  facet normal 0.42267 0.906284 -0
    outer loop
      vertex -29.0472 -28.5035 -1.5
      vertex -29.3 -28.3856 1.5
      vertex -29.0472 -28.5035 1.5
    endloop
  endfacet
  facet normal 0.42267 0.906284 0
    outer loop
      vertex -29.3 -28.3856 1.5
      vertex -29.0472 -28.5035 -1.5
      vertex -29.3 -28.3856 -1.5
    endloop
  endfacet
  facet normal -0.258868 0.965913 0
    outer loop
      vertex -27.9528 25.4965 -1.5
      vertex -28.2222 25.4243 1.5
      vertex -27.9528 25.4965 1.5
    endloop
  endfacet
  facet normal -0.258868 0.965913 0
    outer loop
      vertex -28.2222 25.4243 1.5
      vertex -27.9528 25.4965 -1.5
      vertex -28.2222 25.4243 -1.5
    endloop
  endfacet
  facet normal -0.965913 -0.258868 0
    outer loop
      vertex -26.9243 27.2778 -1.5
      vertex -26.9965 27.5472 1.5
      vertex -26.9965 27.5472 -1.5
    endloop
  endfacet
  facet normal -0.965913 -0.258868 0
    outer loop
      vertex -26.9965 27.5472 1.5
      vertex -26.9243 27.2778 -1.5
      vertex -26.9243 27.2778 1.5
    endloop
  endfacet
  facet normal -0.996196 -0.0871403 0
    outer loop
      vertex -26.9 27 -1.5
      vertex -26.9243 27.2778 1.5
      vertex -26.9243 27.2778 -1.5
    endloop
  endfacet
  facet normal -0.996196 -0.0871403 0
    outer loop
      vertex -26.9243 27.2778 1.5
      vertex -26.9 27 -1.5
      vertex -26.9 27 1.5
    endloop
  endfacet
  facet normal -0.906284 -0.42267 0
    outer loop
      vertex -26.9965 27.5472 -1.5
      vertex -27.1144 27.8 1.5
      vertex -27.1144 27.8 -1.5
    endloop
  endfacet
  facet normal -0.906284 -0.42267 0
    outer loop
      vertex -27.1144 27.8 1.5
      vertex -26.9965 27.5472 -1.5
      vertex -26.9965 27.5472 1.5
    endloop
  endfacet
  facet normal -0.996196 0.0871403 0
    outer loop
      vertex -26.9243 26.7222 -1.5
      vertex -26.9 27 1.5
      vertex -26.9 27 -1.5
    endloop
  endfacet
  facet normal -0.996196 0.0871403 0
    outer loop
      vertex -26.9 27 1.5
      vertex -26.9243 26.7222 -1.5
      vertex -26.9243 26.7222 1.5
    endloop
  endfacet
  facet normal -0.258868 -0.965913 0
    outer loop
      vertex -28.2222 28.5757 -1.5
      vertex -27.9528 28.5035 1.5
      vertex -28.2222 28.5757 1.5
    endloop
  endfacet
  facet normal -0.258868 -0.965913 -0
    outer loop
      vertex -27.9528 28.5035 1.5
      vertex -28.2222 28.5757 -1.5
      vertex -27.9528 28.5035 -1.5
    endloop
  endfacet
  facet normal -0.707107 -0.707107 0
    outer loop
      vertex -27.2743 28.0285 -1.5
      vertex -27.4715 28.2257 1.5
      vertex -27.4715 28.2257 -1.5
    endloop
  endfacet
  facet normal -0.707107 -0.707107 0
    outer loop
      vertex -27.4715 28.2257 1.5
      vertex -27.2743 28.0285 -1.5
      vertex -27.2743 28.0285 1.5
    endloop
  endfacet
  facet normal 0.906284 0.42267 0
    outer loop
      vertex -29.8856 26.2 1.5
      vertex -30.0035 26.4528 -1.5
      vertex -30.0035 26.4528 1.5
    endloop
  endfacet
  facet normal 0.906284 0.42267 0
    outer loop
      vertex -30.0035 26.4528 -1.5
      vertex -29.8856 26.2 1.5
      vertex -29.8856 26.2 -1.5
    endloop
  endfacet
  facet normal -0.906284 0.42267 0
    outer loop
      vertex -27.1144 26.2 -1.5
      vertex -26.9965 26.4528 1.5
      vertex -26.9965 26.4528 -1.5
    endloop
  endfacet
  facet normal -0.906284 0.42267 0
    outer loop
      vertex -26.9965 26.4528 1.5
      vertex -27.1144 26.2 -1.5
      vertex -27.1144 26.2 1.5
    endloop
  endfacet
  facet normal 0.42267 -0.906284 0
    outer loop
      vertex -29.3 28.3856 -1.5
      vertex -29.0472 28.5035 1.5
      vertex -29.3 28.3856 1.5
    endloop
  endfacet
  facet normal 0.42267 -0.906284 0
    outer loop
      vertex -29.0472 28.5035 1.5
      vertex -29.3 28.3856 -1.5
      vertex -29.0472 28.5035 -1.5
    endloop
  endfacet
  facet normal -0.707107 0.707107 0
    outer loop
      vertex -27.4715 25.7743 -1.5
      vertex -27.2743 25.9715 1.5
      vertex -27.2743 25.9715 -1.5
    endloop
  endfacet
  facet normal -0.707107 0.707107 0
    outer loop
      vertex -27.2743 25.9715 1.5
      vertex -27.4715 25.7743 -1.5
      vertex -27.4715 25.7743 1.5
    endloop
  endfacet
  facet normal 0.573342 -0.819316 0
    outer loop
      vertex -29.5285 28.2257 -1.5
      vertex -29.3 28.3856 1.5
      vertex -29.5285 28.2257 1.5
    endloop
  endfacet
  facet normal 0.573342 -0.819316 0
    outer loop
      vertex -29.3 28.3856 1.5
      vertex -29.5285 28.2257 -1.5
      vertex -29.3 28.3856 -1.5
    endloop
  endfacet
  facet normal -0.819316 0.573342 0
    outer loop
      vertex -27.2743 25.9715 -1.5
      vertex -27.1144 26.2 1.5
      vertex -27.1144 26.2 -1.5
    endloop
  endfacet
  facet normal -0.819316 0.573342 0
    outer loop
      vertex -27.1144 26.2 1.5
      vertex -27.2743 25.9715 -1.5
      vertex -27.2743 25.9715 1.5
    endloop
  endfacet
  facet normal -0.965913 0.258868 0
    outer loop
      vertex -26.9965 26.4528 -1.5
      vertex -26.9243 26.7222 1.5
      vertex -26.9243 26.7222 -1.5
    endloop
  endfacet
  facet normal -0.965913 0.258868 0
    outer loop
      vertex -26.9243 26.7222 1.5
      vertex -26.9965 26.4528 -1.5
      vertex -26.9965 26.4528 1.5
    endloop
  endfacet
  facet normal -0.42267 0.906284 0
    outer loop
      vertex -27.7 25.6144 -1.5
      vertex -27.9528 25.4965 1.5
      vertex -27.7 25.6144 1.5
    endloop
  endfacet
  facet normal -0.42267 0.906284 0
    outer loop
      vertex -27.9528 25.4965 1.5
      vertex -27.7 25.6144 -1.5
      vertex -27.9528 25.4965 -1.5
    endloop
  endfacet
  facet normal 0.965913 0.258868 0
    outer loop
      vertex -30.0035 26.4528 1.5
      vertex -30.0757 26.7222 -1.5
      vertex -30.0757 26.7222 1.5
    endloop
  endfacet
  facet normal 0.965913 0.258868 0
    outer loop
      vertex -30.0757 26.7222 -1.5
      vertex -30.0035 26.4528 1.5
      vertex -30.0035 26.4528 -1.5
    endloop
  endfacet
  facet normal 0.707107 -0.707107 0
    outer loop
      vertex -29.7257 28.0285 1.5
      vertex -29.5285 28.2257 -1.5
      vertex -29.5285 28.2257 1.5
    endloop
  endfacet
  facet normal 0.707107 -0.707107 0
    outer loop
      vertex -29.5285 28.2257 -1.5
      vertex -29.7257 28.0285 1.5
      vertex -29.7257 28.0285 -1.5
    endloop
  endfacet
  facet normal -0.819316 -0.573342 0
    outer loop
      vertex -27.1144 27.8 -1.5
      vertex -27.2743 28.0285 1.5
      vertex -27.2743 28.0285 -1.5
    endloop
  endfacet
  facet normal -0.819316 -0.573342 0
    outer loop
      vertex -27.2743 28.0285 1.5
      vertex -27.1144 27.8 -1.5
      vertex -27.1144 27.8 1.5
    endloop
  endfacet
  facet normal 0.258868 -0.965913 0
    outer loop
      vertex -29.0472 28.5035 -1.5
      vertex -28.7778 28.5757 1.5
      vertex -29.0472 28.5035 1.5
    endloop
  endfacet
  facet normal 0.258868 -0.965913 0
    outer loop
      vertex -28.7778 28.5757 1.5
      vertex -29.0472 28.5035 -1.5
      vertex -28.7778 28.5757 -1.5
    endloop
  endfacet
  facet normal 0.996196 -0.0871403 0
    outer loop
      vertex -30.1 27 1.5
      vertex -30.0757 27.2778 -1.5
      vertex -30.0757 27.2778 1.5
    endloop
  endfacet
  facet normal 0.996196 -0.0871403 0
    outer loop
      vertex -30.0757 27.2778 -1.5
      vertex -30.1 27 1.5
      vertex -30.1 27 -1.5
    endloop
  endfacet
  facet normal 0.906284 -0.42267 0
    outer loop
      vertex -30.0035 27.5472 1.5
      vertex -29.8856 27.8 -1.5
      vertex -29.8856 27.8 1.5
    endloop
  endfacet
  facet normal 0.906284 -0.42267 0
    outer loop
      vertex -29.8856 27.8 -1.5
      vertex -30.0035 27.5472 1.5
      vertex -30.0035 27.5472 -1.5
    endloop
  endfacet
  facet normal 0.0871403 0.996196 -0
    outer loop
      vertex -28.5 25.4 -1.5
      vertex -28.7778 25.4243 1.5
      vertex -28.5 25.4 1.5
    endloop
  endfacet
  facet normal 0.0871403 0.996196 0
    outer loop
      vertex -28.7778 25.4243 1.5
      vertex -28.5 25.4 -1.5
      vertex -28.7778 25.4243 -1.5
    endloop
  endfacet
  facet normal 0.965913 -0.258868 0
    outer loop
      vertex -30.0757 27.2778 1.5
      vertex -30.0035 27.5472 -1.5
      vertex -30.0035 27.5472 1.5
    endloop
  endfacet
  facet normal 0.965913 -0.258868 0
    outer loop
      vertex -30.0035 27.5472 -1.5
      vertex -30.0757 27.2778 1.5
      vertex -30.0757 27.2778 -1.5
    endloop
  endfacet
  facet normal -0.573342 0.819316 0
    outer loop
      vertex -27.4715 25.7743 -1.5
      vertex -27.7 25.6144 1.5
      vertex -27.4715 25.7743 1.5
    endloop
  endfacet
  facet normal -0.573342 0.819316 0
    outer loop
      vertex -27.7 25.6144 1.5
      vertex -27.4715 25.7743 -1.5
      vertex -27.7 25.6144 -1.5
    endloop
  endfacet
  facet normal -0.42267 -0.906284 0
    outer loop
      vertex -27.9528 28.5035 -1.5
      vertex -27.7 28.3856 1.5
      vertex -27.9528 28.5035 1.5
    endloop
  endfacet
  facet normal -0.42267 -0.906284 -0
    outer loop
      vertex -27.7 28.3856 1.5
      vertex -27.9528 28.5035 -1.5
      vertex -27.7 28.3856 -1.5
    endloop
  endfacet
  facet normal -0.573342 -0.819316 0
    outer loop
      vertex -27.7 28.3856 -1.5
      vertex -27.4715 28.2257 1.5
      vertex -27.7 28.3856 1.5
    endloop
  endfacet
  facet normal -0.573342 -0.819316 -0
    outer loop
      vertex -27.4715 28.2257 1.5
      vertex -27.7 28.3856 -1.5
      vertex -27.4715 28.2257 -1.5
    endloop
  endfacet
  facet normal -0.0871403 -0.996196 0
    outer loop
      vertex -28.5 28.6 -1.5
      vertex -28.2222 28.5757 1.5
      vertex -28.5 28.6 1.5
    endloop
  endfacet
  facet normal -0.0871403 -0.996196 -0
    outer loop
      vertex -28.2222 28.5757 1.5
      vertex -28.5 28.6 -1.5
      vertex -28.2222 28.5757 -1.5
    endloop
  endfacet
  facet normal 0.258868 0.965913 -0
    outer loop
      vertex -28.7778 25.4243 -1.5
      vertex -29.0472 25.4965 1.5
      vertex -28.7778 25.4243 1.5
    endloop
  endfacet
  facet normal 0.258868 0.965913 0
    outer loop
      vertex -29.0472 25.4965 1.5
      vertex -28.7778 25.4243 -1.5
      vertex -29.0472 25.4965 -1.5
    endloop
  endfacet
  facet normal 0.573342 0.819316 -0
    outer loop
      vertex -29.3 25.6144 -1.5
      vertex -29.5285 25.7743 1.5
      vertex -29.3 25.6144 1.5
    endloop
  endfacet
  facet normal 0.573342 0.819316 0
    outer loop
      vertex -29.5285 25.7743 1.5
      vertex -29.3 25.6144 -1.5
      vertex -29.5285 25.7743 -1.5
    endloop
  endfacet
  facet normal 0.819316 0.573342 0
    outer loop
      vertex -29.7257 25.9715 1.5
      vertex -29.8856 26.2 -1.5
      vertex -29.8856 26.2 1.5
    endloop
  endfacet
  facet normal 0.819316 0.573342 0
    outer loop
      vertex -29.8856 26.2 -1.5
      vertex -29.7257 25.9715 1.5
      vertex -29.7257 25.9715 -1.5
    endloop
  endfacet
  facet normal 0.0871403 -0.996196 0
    outer loop
      vertex -28.7778 28.5757 -1.5
      vertex -28.5 28.6 1.5
      vertex -28.7778 28.5757 1.5
    endloop
  endfacet
  facet normal 0.0871403 -0.996196 0
    outer loop
      vertex -28.5 28.6 1.5
      vertex -28.7778 28.5757 -1.5
      vertex -28.5 28.6 -1.5
    endloop
  endfacet
  facet normal 0.707107 0.707107 0
    outer loop
      vertex -29.5285 25.7743 1.5
      vertex -29.7257 25.9715 -1.5
      vertex -29.7257 25.9715 1.5
    endloop
  endfacet
  facet normal 0.707107 0.707107 0
    outer loop
      vertex -29.7257 25.9715 -1.5
      vertex -29.5285 25.7743 1.5
      vertex -29.5285 25.7743 -1.5
    endloop
  endfacet
  facet normal -0.0871403 0.996196 0
    outer loop
      vertex -28.2222 25.4243 -1.5
      vertex -28.5 25.4 1.5
      vertex -28.2222 25.4243 1.5
    endloop
  endfacet
  facet normal -0.0871403 0.996196 0
    outer loop
      vertex -28.5 25.4 1.5
      vertex -28.2222 25.4243 -1.5
      vertex -28.5 25.4 -1.5
    endloop
  endfacet
  facet normal 0.819316 -0.573342 0
    outer loop
      vertex -29.8856 27.8 1.5
      vertex -29.7257 28.0285 -1.5
      vertex -29.7257 28.0285 1.5
    endloop
  endfacet
  facet normal 0.819316 -0.573342 0
    outer loop
      vertex -29.7257 28.0285 -1.5
      vertex -29.8856 27.8 1.5
      vertex -29.8856 27.8 -1.5
    endloop
  endfacet
  facet normal 0.996196 0.0871403 0
    outer loop
      vertex -30.0757 26.7222 1.5
      vertex -30.1 27 -1.5
      vertex -30.1 27 1.5
    endloop
  endfacet
  facet normal 0.996196 0.0871403 0
    outer loop
      vertex -30.1 27 -1.5
      vertex -30.0757 26.7222 1.5
      vertex -30.0757 26.7222 -1.5
    endloop
  endfacet
  facet normal 0.42267 0.906284 -0
    outer loop
      vertex -29.0472 25.4965 -1.5
      vertex -29.3 25.6144 1.5
      vertex -29.0472 25.4965 1.5
    endloop
  endfacet
  facet normal 0.42267 0.906284 0
    outer loop
      vertex -29.3 25.6144 1.5
      vertex -29.0472 25.4965 -1.5
      vertex -29.3 25.6144 -1.5
    endloop
  endfacet
  facet normal 1 -0 0
    outer loop
      vertex 33.1 -38.6 1.5
      vertex 33.1 38.6 -1.5
      vertex 33.1 38.6 1.5
    endloop
  endfacet
  facet normal 1 0 0
    outer loop
      vertex 33.1 38.6 -1.5
      vertex 33.1 -38.6 1.5
      vertex 33.1 -38.6 -1.5
    endloop
  endfacet
  facet normal -0 0 1
    outer loop
      vertex -27.1144 26.2 1.5
      vertex 22 11 1.5
      vertex -26.9965 26.4528 1.5
    endloop
  endfacet
  facet normal 0 0 1
    outer loop
      vertex 22 -11 1.5
      vertex -26.9243 -26.7222 1.5
      vertex -26.9 -27 1.5
    endloop
  endfacet
  facet normal -0 0 1
    outer loop
      vertex -27.2743 25.9715 1.5
      vertex 22 11 1.5
      vertex -27.1144 26.2 1.5
    endloop
  endfacet
  facet normal 0 0 1
    outer loop
      vertex 22 -11 1.5
      vertex -26.9965 -26.4528 1.5
      vertex -26.9243 -26.7222 1.5
    endloop
  endfacet
  facet normal -0 0 1
    outer loop
      vertex -27.4715 25.7743 1.5
      vertex 22 11 1.5
      vertex -27.2743 25.9715 1.5
    endloop
  endfacet
  facet normal 0 0 1
    outer loop
      vertex 22 -11 1.5
      vertex -27.1144 -26.2 1.5
      vertex -26.9965 -26.4528 1.5
    endloop
  endfacet
  facet normal 0 0 1
    outer loop
      vertex 22 11 1.5
      vertex -27.4715 25.7743 1.5
      vertex 22 -11 1.5
    endloop
  endfacet
  facet normal 0 0 1
    outer loop
      vertex 22 -11 1.5
      vertex -27.2743 -25.9715 1.5
      vertex -27.1144 -26.2 1.5
    endloop
  endfacet
  facet normal 0 0 1
    outer loop
      vertex -27.4715 -25.7743 1.5
      vertex 22 -11 1.5
      vertex -27.4715 25.7743 1.5
    endloop
  endfacet
  facet normal 0 0 1
    outer loop
      vertex 22 -11 1.5
      vertex -27.4715 -25.7743 1.5
      vertex -27.2743 -25.9715 1.5
    endloop
  endfacet
  facet normal -0 0 1
    outer loop
      vertex -27.7 25.6144 1.5
      vertex -27.4715 -25.7743 1.5
      vertex -27.4715 25.7743 1.5
    endloop
  endfacet
  facet normal 0 0 1
    outer loop
      vertex -27.7 25.6144 1.5
      vertex -27.7 -25.6144 1.5
      vertex -27.4715 -25.7743 1.5
    endloop
  endfacet
  facet normal -0 0 1
    outer loop
      vertex -27.9528 25.4965 1.5
      vertex -27.7 -25.6144 1.5
      vertex -27.7 25.6144 1.5
    endloop
  endfacet
  facet normal 0 0 1
    outer loop
      vertex -27.9528 25.4965 1.5
      vertex -27.9528 -25.4965 1.5
      vertex -27.7 -25.6144 1.5
    endloop
  endfacet
  facet normal -0 0 1
    outer loop
      vertex -28.2222 25.4243 1.5
      vertex -27.9528 -25.4965 1.5
      vertex -27.9528 25.4965 1.5
    endloop
  endfacet
  facet normal 0 0 1
    outer loop
      vertex -28.2222 25.4243 1.5
      vertex -28.2222 -25.4243 1.5
      vertex -27.9528 -25.4965 1.5
    endloop
  endfacet
  facet normal -0 0 1
    outer loop
      vertex -28.5 25.4 1.5
      vertex -28.2222 -25.4243 1.5
      vertex -28.2222 25.4243 1.5
    endloop
  endfacet
  facet normal 0 0 1
    outer loop
      vertex -28.5 25.4 1.5
      vertex -28.5 -25.4 1.5
      vertex -28.2222 -25.4243 1.5
    endloop
  endfacet
  facet normal 0 0 1
    outer loop
      vertex -28.7778 25.4243 1.5
      vertex -28.5 -25.4 1.5
      vertex -28.5 25.4 1.5
    endloop
  endfacet
  facet normal 0 0 1
    outer loop
      vertex -28.7778 25.4243 1.5
      vertex -28.7778 -25.4243 1.5
      vertex -28.5 -25.4 1.5
    endloop
  endfacet
  facet normal 0 0 1
    outer loop
      vertex -29.0472 25.4965 1.5
      vertex -28.7778 -25.4243 1.5
      vertex -28.7778 25.4243 1.5
    endloop
  endfacet
  facet normal 0 0 1
    outer loop
      vertex -29.0472 25.4965 1.5
      vertex -29.0472 -25.4965 1.5
      vertex -28.7778 -25.4243 1.5
    endloop
  endfacet
  facet normal 0 0 1
    outer loop
      vertex -29.3 25.6144 1.5
      vertex -29.0472 -25.4965 1.5
      vertex -29.0472 25.4965 1.5
    endloop
  endfacet
  facet normal 0 0 1
    outer loop
      vertex -29.3 25.6144 1.5
      vertex -29.3 -25.6144 1.5
      vertex -29.0472 -25.4965 1.5
    endloop
  endfacet
  facet normal 0 0 1
    outer loop
      vertex -29.5285 25.7743 1.5
      vertex -29.3 -25.6144 1.5
      vertex -29.3 25.6144 1.5
    endloop
  endfacet
  facet normal 0 0 1
    outer loop
      vertex -29.5285 25.7743 1.5
      vertex -29.5285 -25.7743 1.5
      vertex -29.3 -25.6144 1.5
    endloop
  endfacet
  facet normal 0 0 1
    outer loop
      vertex -29.7257 25.9715 1.5
      vertex -29.5285 -25.7743 1.5
      vertex -29.5285 25.7743 1.5
    endloop
  endfacet
  facet normal 0 0 1
    outer loop
      vertex -29.7257 25.9715 1.5
      vertex -29.7257 -25.9715 1.5
      vertex -29.5285 -25.7743 1.5
    endloop
  endfacet
  facet normal 0 0 1
    outer loop
      vertex -29.8856 26.2 1.5
      vertex -29.7257 -25.9715 1.5
      vertex -29.7257 25.9715 1.5
    endloop
  endfacet
  facet normal 0 0 1
    outer loop
      vertex -29.8856 26.2 1.5
      vertex -29.8856 -26.2 1.5
      vertex -29.7257 -25.9715 1.5
    endloop
  endfacet
  facet normal 0 0 1
    outer loop
      vertex -30.0035 26.4528 1.5
      vertex -29.8856 -26.2 1.5
      vertex -29.8856 26.2 1.5
    endloop
  endfacet
  facet normal 0 0 1
    outer loop
      vertex -30.0035 26.4528 1.5
      vertex -30.0035 -26.4528 1.5
      vertex -29.8856 -26.2 1.5
    endloop
  endfacet
  facet normal 0 0 1
    outer loop
      vertex -30.0757 26.7222 1.5
      vertex -30.0035 -26.4528 1.5
      vertex -30.0035 26.4528 1.5
    endloop
  endfacet
  facet normal 0 0 1
    outer loop
      vertex -30.0757 26.7222 1.5
      vertex -30.0757 -26.7222 1.5
      vertex -30.0035 -26.4528 1.5
    endloop
  endfacet
  facet normal 0 0 1
    outer loop
      vertex -33.1 38.6 1.5
      vertex -30.0757 26.7222 1.5
      vertex -30.1 27 1.5
    endloop
  endfacet
  facet normal 0 0 1
    outer loop
      vertex -30.0757 26.7222 1.5
      vertex -33.1 38.6 1.5
      vertex -30.0757 -26.7222 1.5
    endloop
  endfacet
  facet normal 0 0 1
    outer loop
      vertex 33.1 38.6 1.5
      vertex 29 11 1.5
      vertex 33.1 -38.6 1.5
    endloop
  endfacet
  facet normal 0 0 1
    outer loop
      vertex 33.1 38.6 1.5
      vertex 22 11 1.5
      vertex 29 11 1.5
    endloop
  endfacet
  facet normal -0 0 1
    outer loop
      vertex -26.9243 26.7222 1.5
      vertex 22 11 1.5
      vertex -26.9 27 1.5
    endloop
  endfacet
  facet normal -0 0 1
    outer loop
      vertex -26.9243 27.2778 1.5
      vertex 22 11 1.5
      vertex 33.1 38.6 1.5
    endloop
  endfacet
  facet normal 0 0 1
    outer loop
      vertex 22 11 1.5
      vertex -26.9243 27.2778 1.5
      vertex -26.9 27 1.5
    endloop
  endfacet
  facet normal 0 0 1
    outer loop
      vertex 33.1 38.6 1.5
      vertex -26.9965 27.5472 1.5
      vertex -26.9243 27.2778 1.5
    endloop
  endfacet
  facet normal 0 0 1
    outer loop
      vertex 33.1 38.6 1.5
      vertex -27.1144 27.8 1.5
      vertex -26.9965 27.5472 1.5
    endloop
  endfacet
  facet normal 0 0 1
    outer loop
      vertex 33.1 38.6 1.5
      vertex -27.2743 28.0285 1.5
      vertex -27.1144 27.8 1.5
    endloop
  endfacet
  facet normal -0 0 1
    outer loop
      vertex -33.1 38.6 1.5
      vertex -27.2743 28.0285 1.5
      vertex 33.1 38.6 1.5
    endloop
  endfacet
  facet normal 0 0 1
    outer loop
      vertex -27.2743 28.0285 1.5
      vertex -33.1 38.6 1.5
      vertex -27.4715 28.2257 1.5
    endloop
  endfacet
  facet normal 0 0 1
    outer loop
      vertex -27.4715 28.2257 1.5
      vertex -33.1 38.6 1.5
      vertex -27.7 28.3856 1.5
    endloop
  endfacet
  facet normal 0 0 1
    outer loop
      vertex -27.7 28.3856 1.5
      vertex -33.1 38.6 1.5
      vertex -27.9528 28.5035 1.5
    endloop
  endfacet
  facet normal 0 0 1
    outer loop
      vertex -27.9528 28.5035 1.5
      vertex -33.1 38.6 1.5
      vertex -28.2222 28.5757 1.5
    endloop
  endfacet
  facet normal 0 0 1
    outer loop
      vertex -28.2222 28.5757 1.5
      vertex -33.1 38.6 1.5
      vertex -28.5 28.6 1.5
    endloop
  endfacet
  facet normal 0 0 1
    outer loop
      vertex -33.1 -38.6 1.5
      vertex -30.0757 -26.7222 1.5
      vertex -33.1 38.6 1.5
    endloop
  endfacet
  facet normal 0 0 1
    outer loop
      vertex -30.0757 27.2778 1.5
      vertex -33.1 38.6 1.5
      vertex -30.1 27 1.5
    endloop
  endfacet
  facet normal 0 0 1
    outer loop
      vertex -30.0035 27.5472 1.5
      vertex -33.1 38.6 1.5
      vertex -30.0757 27.2778 1.5
    endloop
  endfacet
  facet normal 0 0 1
    outer loop
      vertex -29.8856 27.8 1.5
      vertex -33.1 38.6 1.5
      vertex -30.0035 27.5472 1.5
    endloop
  endfacet
  facet normal 0 0 1
    outer loop
      vertex -29.7257 28.0285 1.5
      vertex -33.1 38.6 1.5
      vertex -29.8856 27.8 1.5
    endloop
  endfacet
  facet normal 0 0 1
    outer loop
      vertex -29.5285 28.2257 1.5
      vertex -33.1 38.6 1.5
      vertex -29.7257 28.0285 1.5
    endloop
  endfacet
  facet normal 0 0 1
    outer loop
      vertex -29.3 28.3856 1.5
      vertex -33.1 38.6 1.5
      vertex -29.5285 28.2257 1.5
    endloop
  endfacet
  facet normal 0 0 1
    outer loop
      vertex -29.0472 28.5035 1.5
      vertex -33.1 38.6 1.5
      vertex -29.3 28.3856 1.5
    endloop
  endfacet
  facet normal 0 0 1
    outer loop
      vertex -28.7778 28.5757 1.5
      vertex -33.1 38.6 1.5
      vertex -29.0472 28.5035 1.5
    endloop
  endfacet
  facet normal 0 0 1
    outer loop
      vertex -28.5 28.6 1.5
      vertex -33.1 38.6 1.5
      vertex -28.7778 28.5757 1.5
    endloop
  endfacet
  facet normal -0 0 1
    outer loop
      vertex 29 -11 1.5
      vertex 33.1 -38.6 1.5
      vertex 29 11 1.5
    endloop
  endfacet
  facet normal -0 0 1
    outer loop
      vertex 22 -11 1.5
      vertex 33.1 -38.6 1.5
      vertex 29 -11 1.5
    endloop
  endfacet
  facet normal -0 0 1
    outer loop
      vertex -26.9965 26.4528 1.5
      vertex 22 11 1.5
      vertex -26.9243 26.7222 1.5
    endloop
  endfacet
  facet normal 0 0 1
    outer loop
      vertex -26.9243 -27.2778 1.5
      vertex 22 -11 1.5
      vertex -26.9 -27 1.5
    endloop
  endfacet
  facet normal 0 0 1
    outer loop
      vertex 22 -11 1.5
      vertex -26.9243 -27.2778 1.5
      vertex 33.1 -38.6 1.5
    endloop
  endfacet
  facet normal -0 0 1
    outer loop
      vertex -26.9965 -27.5472 1.5
      vertex 33.1 -38.6 1.5
      vertex -26.9243 -27.2778 1.5
    endloop
  endfacet
  facet normal -0 0 1
    outer loop
      vertex -27.1144 -27.8 1.5
      vertex 33.1 -38.6 1.5
      vertex -26.9965 -27.5472 1.5
    endloop
  endfacet
  facet normal -0 0 1
    outer loop
      vertex -27.2743 -28.0285 1.5
      vertex 33.1 -38.6 1.5
      vertex -27.1144 -27.8 1.5
    endloop
  endfacet
  facet normal 0 0 1
    outer loop
      vertex -33.1 -38.6 1.5
      vertex -27.2743 -28.0285 1.5
      vertex -27.4715 -28.2257 1.5
    endloop
  endfacet
  facet normal 0 0 1
    outer loop
      vertex -33.1 -38.6 1.5
      vertex -27.4715 -28.2257 1.5
      vertex -27.7 -28.3856 1.5
    endloop
  endfacet
  facet normal 0 0 1
    outer loop
      vertex -33.1 -38.6 1.5
      vertex -27.7 -28.3856 1.5
      vertex -27.9528 -28.5035 1.5
    endloop
  endfacet
  facet normal 0 0 1
    outer loop
      vertex -33.1 -38.6 1.5
      vertex -27.9528 -28.5035 1.5
      vertex -28.2222 -28.5757 1.5
    endloop
  endfacet
  facet normal 0 0 1
    outer loop
      vertex -33.1 -38.6 1.5
      vertex -28.2222 -28.5757 1.5
      vertex -28.5 -28.6 1.5
    endloop
  endfacet
  facet normal 0 0 1
    outer loop
      vertex -33.1 -38.6 1.5
      vertex -28.5 -28.6 1.5
      vertex -28.7778 -28.5757 1.5
    endloop
  endfacet
  facet normal 0 0 1
    outer loop
      vertex -27.2743 -28.0285 1.5
      vertex -33.1 -38.6 1.5
      vertex 33.1 -38.6 1.5
    endloop
  endfacet
  facet normal 0 0 1
    outer loop
      vertex -29.0472 -28.5035 1.5
      vertex -33.1 -38.6 1.5
      vertex -28.7778 -28.5757 1.5
    endloop
  endfacet
  facet normal 0 0 1
    outer loop
      vertex -29.3 -28.3856 1.5
      vertex -33.1 -38.6 1.5
      vertex -29.0472 -28.5035 1.5
    endloop
  endfacet
  facet normal 0 0 1
    outer loop
      vertex -29.5285 -28.2257 1.5
      vertex -33.1 -38.6 1.5
      vertex -29.3 -28.3856 1.5
    endloop
  endfacet
  facet normal 0 0 1
    outer loop
      vertex -29.7257 -28.0285 1.5
      vertex -33.1 -38.6 1.5
      vertex -29.5285 -28.2257 1.5
    endloop
  endfacet
  facet normal 0 0 1
    outer loop
      vertex -29.8856 -27.8 1.5
      vertex -33.1 -38.6 1.5
      vertex -29.7257 -28.0285 1.5
    endloop
  endfacet
  facet normal 0 0 1
    outer loop
      vertex -30.0035 -27.5472 1.5
      vertex -33.1 -38.6 1.5
      vertex -29.8856 -27.8 1.5
    endloop
  endfacet
  facet normal 0 0 1
    outer loop
      vertex -30.0757 -27.2778 1.5
      vertex -33.1 -38.6 1.5
      vertex -30.0035 -27.5472 1.5
    endloop
  endfacet
  facet normal 0 0 1
    outer loop
      vertex -30.1 -27 1.5
      vertex -33.1 -38.6 1.5
      vertex -30.0757 -27.2778 1.5
    endloop
  endfacet
  facet normal 0 0 1
    outer loop
      vertex -30.0757 -26.7222 1.5
      vertex -33.1 -38.6 1.5
      vertex -30.1 -27 1.5
    endloop
  endfacet
  facet normal 0 0 -1
    outer loop
      vertex -27.1144 -26.2 -1.5
      vertex 33.1 -38.6 -1.5
      vertex -26.9965 -26.4528 -1.5
    endloop
  endfacet
  facet normal 0 0 -1
    outer loop
      vertex 33.1 38.6 -1.5
      vertex -26.9243 26.7222 -1.5
      vertex -26.9 27 -1.5
    endloop
  endfacet
  facet normal 0 0 -1
    outer loop
      vertex 33.1 -38.6 -1.5
      vertex -27.1144 -26.2 -1.5
      vertex 33.1 38.6 -1.5
    endloop
  endfacet
  facet normal 0 0 -1
    outer loop
      vertex 33.1 38.6 -1.5
      vertex -26.9965 26.4528 -1.5
      vertex -26.9243 26.7222 -1.5
    endloop
  endfacet
  facet normal 0 0 -1
    outer loop
      vertex -27.1144 26.2 -1.5
      vertex 33.1 38.6 -1.5
      vertex -27.1144 -26.2 -1.5
    endloop
  endfacet
  facet normal 0 0 -1
    outer loop
      vertex 33.1 38.6 -1.5
      vertex -27.1144 26.2 -1.5
      vertex -26.9965 26.4528 -1.5
    endloop
  endfacet
  facet normal 0 0 -1
    outer loop
      vertex -27.2743 -25.9715 -1.5
      vertex -27.1144 26.2 -1.5
      vertex -27.1144 -26.2 -1.5
    endloop
  endfacet
  facet normal 0 0 -1
    outer loop
      vertex -27.2743 -25.9715 -1.5
      vertex -27.2743 25.9715 -1.5
      vertex -27.1144 26.2 -1.5
    endloop
  endfacet
  facet normal 0 0 -1
    outer loop
      vertex -27.4715 -25.7743 -1.5
      vertex -27.2743 25.9715 -1.5
      vertex -27.2743 -25.9715 -1.5
    endloop
  endfacet
  facet normal 0 0 -1
    outer loop
      vertex -27.4715 -25.7743 -1.5
      vertex -27.4715 25.7743 -1.5
      vertex -27.2743 25.9715 -1.5
    endloop
  endfacet
  facet normal 0 0 -1
    outer loop
      vertex -27.7 -25.6144 -1.5
      vertex -27.4715 25.7743 -1.5
      vertex -27.4715 -25.7743 -1.5
    endloop
  endfacet
  facet normal 0 0 -1
    outer loop
      vertex -27.7 -25.6144 -1.5
      vertex -27.7 25.6144 -1.5
      vertex -27.4715 25.7743 -1.5
    endloop
  endfacet
  facet normal 0 0 -1
    outer loop
      vertex -27.9528 -25.4965 -1.5
      vertex -27.7 25.6144 -1.5
      vertex -27.7 -25.6144 -1.5
    endloop
  endfacet
  facet normal 0 0 -1
    outer loop
      vertex -27.9528 -25.4965 -1.5
      vertex -27.9528 25.4965 -1.5
      vertex -27.7 25.6144 -1.5
    endloop
  endfacet
  facet normal 0 0 -1
    outer loop
      vertex -28.2222 -25.4243 -1.5
      vertex -27.9528 25.4965 -1.5
      vertex -27.9528 -25.4965 -1.5
    endloop
  endfacet
  facet normal 0 0 -1
    outer loop
      vertex -28.2222 -25.4243 -1.5
      vertex -28.2222 25.4243 -1.5
      vertex -27.9528 25.4965 -1.5
    endloop
  endfacet
  facet normal 0 0 -1
    outer loop
      vertex -28.5 -25.4 -1.5
      vertex -28.2222 25.4243 -1.5
      vertex -28.2222 -25.4243 -1.5
    endloop
  endfacet
  facet normal 0 0 -1
    outer loop
      vertex -28.5 -25.4 -1.5
      vertex -28.5 25.4 -1.5
      vertex -28.2222 25.4243 -1.5
    endloop
  endfacet
  facet normal 0 0 -1
    outer loop
      vertex -28.7778 -25.4243 -1.5
      vertex -28.5 25.4 -1.5
      vertex -28.5 -25.4 -1.5
    endloop
  endfacet
  facet normal 0 0 -1
    outer loop
      vertex -28.7778 -25.4243 -1.5
      vertex -28.7778 25.4243 -1.5
      vertex -28.5 25.4 -1.5
    endloop
  endfacet
  facet normal 0 0 -1
    outer loop
      vertex -29.0472 -25.4965 -1.5
      vertex -28.7778 25.4243 -1.5
      vertex -28.7778 -25.4243 -1.5
    endloop
  endfacet
  facet normal 0 0 -1
    outer loop
      vertex -29.0472 -25.4965 -1.5
      vertex -29.0472 25.4965 -1.5
      vertex -28.7778 25.4243 -1.5
    endloop
  endfacet
  facet normal 0 0 -1
    outer loop
      vertex -29.3 -25.6144 -1.5
      vertex -29.0472 25.4965 -1.5
      vertex -29.0472 -25.4965 -1.5
    endloop
  endfacet
  facet normal 0 0 -1
    outer loop
      vertex -29.3 -25.6144 -1.5
      vertex -29.3 25.6144 -1.5
      vertex -29.0472 25.4965 -1.5
    endloop
  endfacet
  facet normal 0 0 -1
    outer loop
      vertex -29.5285 -25.7743 -1.5
      vertex -29.3 25.6144 -1.5
      vertex -29.3 -25.6144 -1.5
    endloop
  endfacet
  facet normal 0 0 -1
    outer loop
      vertex -29.5285 -25.7743 -1.5
      vertex -29.5285 25.7743 -1.5
      vertex -29.3 25.6144 -1.5
    endloop
  endfacet
  facet normal 0 0 -1
    outer loop
      vertex -29.7257 -25.9715 -1.5
      vertex -29.5285 25.7743 -1.5
      vertex -29.5285 -25.7743 -1.5
    endloop
  endfacet
  facet normal 0 0 -1
    outer loop
      vertex -29.7257 -25.9715 -1.5
      vertex -29.7257 25.9715 -1.5
      vertex -29.5285 25.7743 -1.5
    endloop
  endfacet
  facet normal 0 0 -1
    outer loop
      vertex -29.8856 -26.2 -1.5
      vertex -29.7257 25.9715 -1.5
      vertex -29.7257 -25.9715 -1.5
    endloop
  endfacet
  facet normal 0 0 -1
    outer loop
      vertex -29.8856 -26.2 -1.5
      vertex -29.8856 26.2 -1.5
      vertex -29.7257 25.9715 -1.5
    endloop
  endfacet
  facet normal 0 0 -1
    outer loop
      vertex -30.0035 -26.4528 -1.5
      vertex -29.8856 26.2 -1.5
      vertex -29.8856 -26.2 -1.5
    endloop
  endfacet
  facet normal 0 0 -1
    outer loop
      vertex -30.0035 -26.4528 -1.5
      vertex -30.0035 26.4528 -1.5
      vertex -29.8856 26.2 -1.5
    endloop
  endfacet
  facet normal 0 0 -1
    outer loop
      vertex -30.0757 -26.7222 -1.5
      vertex -30.0035 26.4528 -1.5
      vertex -30.0035 -26.4528 -1.5
    endloop
  endfacet
  facet normal 0 0 -1
    outer loop
      vertex -30.0757 -26.7222 -1.5
      vertex -30.0757 26.7222 -1.5
      vertex -30.0035 26.4528 -1.5
    endloop
  endfacet
  facet normal 0 0 -1
    outer loop
      vertex -33.1 -38.6 -1.5
      vertex -30.0757 -26.7222 -1.5
      vertex -30.1 -27 -1.5
    endloop
  endfacet
  facet normal -0 0 -1
    outer loop
      vertex -30.0757 -26.7222 -1.5
      vertex -33.1 -38.6 -1.5
      vertex -30.0757 26.7222 -1.5
    endloop
  endfacet
  facet normal 0 0 -1
    outer loop
      vertex -26.9243 -26.7222 -1.5
      vertex 33.1 -38.6 -1.5
      vertex -26.9 -27 -1.5
    endloop
  endfacet
  facet normal 0 0 -1
    outer loop
      vertex 33.1 -38.6 -1.5
      vertex -26.9243 -27.2778 -1.5
      vertex -26.9 -27 -1.5
    endloop
  endfacet
  facet normal 0 0 -1
    outer loop
      vertex 33.1 -38.6 -1.5
      vertex -26.9965 -27.5472 -1.5
      vertex -26.9243 -27.2778 -1.5
    endloop
  endfacet
  facet normal 0 0 -1
    outer loop
      vertex 33.1 -38.6 -1.5
      vertex -27.1144 -27.8 -1.5
      vertex -26.9965 -27.5472 -1.5
    endloop
  endfacet
  facet normal 0 0 -1
    outer loop
      vertex 33.1 -38.6 -1.5
      vertex -27.2743 -28.0285 -1.5
      vertex -27.1144 -27.8 -1.5
    endloop
  endfacet
  facet normal 0 0 -1
    outer loop
      vertex -33.1 -38.6 -1.5
      vertex -27.2743 -28.0285 -1.5
      vertex 33.1 -38.6 -1.5
    endloop
  endfacet
  facet normal 0 0 -1
    outer loop
      vertex -27.2743 -28.0285 -1.5
      vertex -33.1 -38.6 -1.5
      vertex -27.4715 -28.2257 -1.5
    endloop
  endfacet
  facet normal 0 0 -1
    outer loop
      vertex -27.4715 -28.2257 -1.5
      vertex -33.1 -38.6 -1.5
      vertex -27.7 -28.3856 -1.5
    endloop
  endfacet
  facet normal 0 0 -1
    outer loop
      vertex -27.7 -28.3856 -1.5
      vertex -33.1 -38.6 -1.5
      vertex -27.9528 -28.5035 -1.5
    endloop
  endfacet
  facet normal 0 0 -1
    outer loop
      vertex -27.9528 -28.5035 -1.5
      vertex -33.1 -38.6 -1.5
      vertex -28.2222 -28.5757 -1.5
    endloop
  endfacet
  facet normal 0 0 -1
    outer loop
      vertex -28.2222 -28.5757 -1.5
      vertex -33.1 -38.6 -1.5
      vertex -28.5 -28.6 -1.5
    endloop
  endfacet
  facet normal 0 0 -1
    outer loop
      vertex -33.1 38.6 -1.5
      vertex -30.0757 26.7222 -1.5
      vertex -33.1 -38.6 -1.5
    endloop
  endfacet
  facet normal -0 0 -1
    outer loop
      vertex -30.0757 -27.2778 -1.5
      vertex -33.1 -38.6 -1.5
      vertex -30.1 -27 -1.5
    endloop
  endfacet
  facet normal -0 0 -1
    outer loop
      vertex -30.0035 -27.5472 -1.5
      vertex -33.1 -38.6 -1.5
      vertex -30.0757 -27.2778 -1.5
    endloop
  endfacet
  facet normal -0 0 -1
    outer loop
      vertex -29.8856 -27.8 -1.5
      vertex -33.1 -38.6 -1.5
      vertex -30.0035 -27.5472 -1.5
    endloop
  endfacet
  facet normal -0 0 -1
    outer loop
      vertex -29.7257 -28.0285 -1.5
      vertex -33.1 -38.6 -1.5
      vertex -29.8856 -27.8 -1.5
    endloop
  endfacet
  facet normal -0 0 -1
    outer loop
      vertex -29.5285 -28.2257 -1.5
      vertex -33.1 -38.6 -1.5
      vertex -29.7257 -28.0285 -1.5
    endloop
  endfacet
  facet normal -0 0 -1
    outer loop
      vertex -29.3 -28.3856 -1.5
      vertex -33.1 -38.6 -1.5
      vertex -29.5285 -28.2257 -1.5
    endloop
  endfacet
  facet normal -0 0 -1
    outer loop
      vertex -29.0472 -28.5035 -1.5
      vertex -33.1 -38.6 -1.5
      vertex -29.3 -28.3856 -1.5
    endloop
  endfacet
  facet normal -0 0 -1
    outer loop
      vertex -28.7778 -28.5757 -1.5
      vertex -33.1 -38.6 -1.5
      vertex -29.0472 -28.5035 -1.5
    endloop
  endfacet
  facet normal -0 0 -1
    outer loop
      vertex -28.5 -28.6 -1.5
      vertex -33.1 -38.6 -1.5
      vertex -28.7778 -28.5757 -1.5
    endloop
  endfacet
  facet normal 0 0 -1
    outer loop
      vertex -26.9965 -26.4528 -1.5
      vertex 33.1 -38.6 -1.5
      vertex -26.9243 -26.7222 -1.5
    endloop
  endfacet
  facet normal 0 0 -1
    outer loop
      vertex -26.9243 27.2778 -1.5
      vertex 33.1 38.6 -1.5
      vertex -26.9 27 -1.5
    endloop
  endfacet
  facet normal 0 0 -1
    outer loop
      vertex -26.9965 27.5472 -1.5
      vertex 33.1 38.6 -1.5
      vertex -26.9243 27.2778 -1.5
    endloop
  endfacet
  facet normal 0 0 -1
    outer loop
      vertex -27.1144 27.8 -1.5
      vertex 33.1 38.6 -1.5
      vertex -26.9965 27.5472 -1.5
    endloop
  endfacet
  facet normal 0 0 -1
    outer loop
      vertex -27.2743 28.0285 -1.5
      vertex 33.1 38.6 -1.5
      vertex -27.1144 27.8 -1.5
    endloop
  endfacet
  facet normal 0 0 -1
    outer loop
      vertex -33.1 38.6 -1.5
      vertex -27.2743 28.0285 -1.5
      vertex -27.4715 28.2257 -1.5
    endloop
  endfacet
  facet normal 0 0 -1
    outer loop
      vertex -33.1 38.6 -1.5
      vertex -27.4715 28.2257 -1.5
      vertex -27.7 28.3856 -1.5
    endloop
  endfacet
  facet normal 0 0 -1
    outer loop
      vertex -33.1 38.6 -1.5
      vertex -27.7 28.3856 -1.5
      vertex -27.9528 28.5035 -1.5
    endloop
  endfacet
  facet normal 0 0 -1
    outer loop
      vertex -33.1 38.6 -1.5
      vertex -27.9528 28.5035 -1.5
      vertex -28.2222 28.5757 -1.5
    endloop
  endfacet
  facet normal 0 0 -1
    outer loop
      vertex -33.1 38.6 -1.5
      vertex -28.2222 28.5757 -1.5
      vertex -28.5 28.6 -1.5
    endloop
  endfacet
  facet normal 0 0 -1
    outer loop
      vertex -33.1 38.6 -1.5
      vertex -28.5 28.6 -1.5
      vertex -28.7778 28.5757 -1.5
    endloop
  endfacet
  facet normal 0 0 -1
    outer loop
      vertex -27.2743 28.0285 -1.5
      vertex -33.1 38.6 -1.5
      vertex 33.1 38.6 -1.5
    endloop
  endfacet
  facet normal 0 0 -1
    outer loop
      vertex -29.0472 28.5035 -1.5
      vertex -33.1 38.6 -1.5
      vertex -28.7778 28.5757 -1.5
    endloop
  endfacet
  facet normal 0 0 -1
    outer loop
      vertex -29.3 28.3856 -1.5
      vertex -33.1 38.6 -1.5
      vertex -29.0472 28.5035 -1.5
    endloop
  endfacet
  facet normal 0 0 -1
    outer loop
      vertex -29.5285 28.2257 -1.5
      vertex -33.1 38.6 -1.5
      vertex -29.3 28.3856 -1.5
    endloop
  endfacet
  facet normal 0 0 -1
    outer loop
      vertex -29.7257 28.0285 -1.5
      vertex -33.1 38.6 -1.5
      vertex -29.5285 28.2257 -1.5
    endloop
  endfacet
  facet normal 0 0 -1
    outer loop
      vertex -29.8856 27.8 -1.5
      vertex -33.1 38.6 -1.5
      vertex -29.7257 28.0285 -1.5
    endloop
  endfacet
  facet normal 0 0 -1
    outer loop
      vertex -30.0035 27.5472 -1.5
      vertex -33.1 38.6 -1.5
      vertex -29.8856 27.8 -1.5
    endloop
  endfacet
  facet normal 0 0 -1
    outer loop
      vertex -30.0757 27.2778 -1.5
      vertex -33.1 38.6 -1.5
      vertex -30.0035 27.5472 -1.5
    endloop
  endfacet
  facet normal 0 0 -1
    outer loop
      vertex -30.1 27 -1.5
      vertex -33.1 38.6 -1.5
      vertex -30.0757 27.2778 -1.5
    endloop
  endfacet
  facet normal 0 0 -1
    outer loop
      vertex -30.0757 26.7222 -1.5
      vertex -33.1 38.6 -1.5
      vertex -30.1 27 -1.5
    endloop
  endfacet
  facet normal -1 0 0
    outer loop
      vertex -33.1 -38.6 -1.5
      vertex -33.1 38.6 1.5
      vertex -33.1 38.6 -1.5
    endloop
  endfacet
  facet normal -1 -0 0
    outer loop
      vertex -33.1 38.6 1.5
      vertex -33.1 -38.6 -1.5
      vertex -33.1 -38.6 1.5
    endloop
  endfacet
  facet normal 0 1 -0
    outer loop
      vertex 33.1 38.6 -1.5
      vertex -33.1 38.6 1.5
      vertex 33.1 38.6 1.5
    endloop
  endfacet
  facet normal 0 1 0
    outer loop
      vertex -33.1 38.6 1.5
      vertex 33.1 38.6 -1.5
      vertex -33.1 38.6 -1.5
    endloop
  endfacet
  facet normal 0 -1 0
    outer loop
      vertex -33.1 -38.6 -1.5
      vertex 33.1 -38.6 1.5
      vertex -33.1 -38.6 1.5
    endloop
  endfacet
  facet normal 0 -1 -0
    outer loop
      vertex 33.1 -38.6 1.5
      vertex -33.1 -38.6 -1.5
      vertex 33.1 -38.6 -1.5
    endloop
  endfacet
  facet normal 1 -0 0
    outer loop
      vertex 29 -11 6.5
      vertex 29 11 1.5
      vertex 29 11 6.5
    endloop
  endfacet
  facet normal 1 0 0
    outer loop
      vertex 29 11 1.5
      vertex 29 -11 6.5
      vertex 29 -11 1.5
    endloop
  endfacet
  facet normal -0 0 1
    outer loop
      vertex 22 11 6.5
      vertex 29 -11 6.5
      vertex 29 11 6.5
    endloop
  endfacet
  facet normal 0 0 1
    outer loop
      vertex 29 -11 6.5
      vertex 22 11 6.5
      vertex 22 -11 6.5
    endloop
  endfacet
  facet normal -1 0 0
    outer loop
      vertex 22 -11 1.5
      vertex 22 11 6.5
      vertex 22 11 1.5
    endloop
  endfacet
  facet normal -1 -0 0
    outer loop
      vertex 22 11 6.5
      vertex 22 -11 1.5
      vertex 22 -11 6.5
    endloop
  endfacet
  facet normal 0 1 -0
    outer loop
      vertex 29 11 1.5
      vertex 22 11 6.5
      vertex 29 11 6.5
    endloop
  endfacet
  facet normal 0 1 0
    outer loop
      vertex 22 11 6.5
      vertex 29 11 1.5
      vertex 22 11 1.5
    endloop
  endfacet
  facet normal 0 -1 0
    outer loop
      vertex 22 -11 1.5
      vertex 29 -11 6.5
      vertex 22 -11 6.5
    endloop
  endfacet
  facet normal 0 -1 -0
    outer loop
      vertex 29 -11 6.5
      vertex 22 -11 1.5
      vertex 29 -11 1.5
    endloop
  endfacet
endsolid OpenSCAD_Model
