solid OpenSCAD_Model
  facet normal 0 0 -1
    outer loop
      vertex 25 0 0
      vertex 7.59229 5.84317 0
      vertex 7.6 6 0
    endloop
  endfacet
  facet normal 0 0 -1
    outer loop
      vertex 25 0 0
      vertex 7.56926 5.68785 0
      vertex 7.59229 5.84317 0
    endloop
  endfacet
  facet normal 0 0 -1
    outer loop
      vertex 25 0 0
      vertex 7.5311 5.53554 0
      vertex 7.56926 5.68785 0
    endloop
  endfacet
  facet normal 0 0 -1
    outer loop
      vertex 25 0 0
      vertex 7.47821 5.38771 0
      vertex 7.5311 5.53554 0
    endloop
  endfacet
  facet normal 0 0 -1
    outer loop
      vertex 25 0 0
      vertex 7.41107 5.24576 0
      vertex 7.47821 5.38771 0
    endloop
  endfacet
  facet normal 0 0 -1
    outer loop
      vertex 25 0 0
      vertex 7.33035 5.11109 0
      vertex 7.41107 5.24576 0
    endloop
  endfacet
  facet normal 0 0 -1
    outer loop
      vertex 25 0 0
      vertex 7.23682 4.98497 0
      vertex 7.33035 5.11109 0
    endloop
  endfacet
  facet normal 0 0 -1
    outer loop
      vertex 25 0 0
      vertex 7.13137 4.86863 0
      vertex 7.23682 4.98497 0
    endloop
  endfacet
  facet normal 0 0 -1
    outer loop
      vertex 25 0 0
      vertex 7.01503 4.76318 0
      vertex 7.13137 4.86863 0
    endloop
  endfacet
  facet normal 0 0 -1
    outer loop
      vertex 25 0 0
      vertex 6.88891 4.66965 0
      vertex 7.01503 4.76318 0
    endloop
  endfacet
  facet normal 0 0 -1
    outer loop
      vertex 25 0 0
      vertex 6.75423 4.58893 0
      vertex 6.88891 4.66965 0
    endloop
  endfacet
  facet normal 0 0 -1
    outer loop
      vertex 25 0 0
      vertex 6.61229 4.52179 0
      vertex 6.75423 4.58893 0
    endloop
  endfacet
  facet normal 0 0 -1
    outer loop
      vertex 0 0 0
      vertex 6.61229 4.52179 0
      vertex 25 0 0
    endloop
  endfacet
  facet normal 0 0 -1
    outer loop
      vertex 6.61229 4.52179 0
      vertex 0 0 0
      vertex 6.46445 4.46889 0
    endloop
  endfacet
  facet normal 0 0 -1
    outer loop
      vertex 6.46445 4.46889 0
      vertex 0 0 0
      vertex 6.31214 4.43074 0
    endloop
  endfacet
  facet normal 0 0 -1
    outer loop
      vertex 6.31214 4.43074 0
      vertex 0 0 0
      vertex 6.15683 4.4077 0
    endloop
  endfacet
  facet normal 0 0 -1
    outer loop
      vertex 6.15683 4.4077 0
      vertex 0 0 0
      vertex 6 4.4 0
    endloop
  endfacet
  facet normal -0 0 -1
    outer loop
      vertex 6 4.4 0
      vertex 0 0 0
      vertex 5.84317 4.4077 0
    endloop
  endfacet
  facet normal -0 0 -1
    outer loop
      vertex 4.4077 5.84317 0
      vertex 0 0 0
      vertex 4.4 6 0
    endloop
  endfacet
  facet normal -0 0 -1
    outer loop
      vertex 4.43074 5.68785 0
      vertex 0 0 0
      vertex 4.4077 5.84317 0
    endloop
  endfacet
  facet normal -0 0 -1
    outer loop
      vertex 4.46889 5.53554 0
      vertex 0 0 0
      vertex 4.43074 5.68785 0
    endloop
  endfacet
  facet normal -0 0 -1
    outer loop
      vertex 4.52179 5.38771 0
      vertex 0 0 0
      vertex 4.46889 5.53554 0
    endloop
  endfacet
  facet normal -0 0 -1
    outer loop
      vertex 4.58893 5.24576 0
      vertex 0 0 0
      vertex 4.52179 5.38771 0
    endloop
  endfacet
  facet normal -0 0 -1
    outer loop
      vertex 4.66965 5.11109 0
      vertex 0 0 0
      vertex 4.58893 5.24576 0
    endloop
  endfacet
  facet normal -0 0 -1
    outer loop
      vertex 4.76318 4.98497 0
      vertex 0 0 0
      vertex 4.66965 5.11109 0
    endloop
  endfacet
  facet normal -0 0 -1
    outer loop
      vertex 4.86863 4.86863 0
      vertex 0 0 0
      vertex 4.76318 4.98497 0
    endloop
  endfacet
  facet normal -0 0 -1
    outer loop
      vertex 4.98497 4.76318 0
      vertex 0 0 0
      vertex 4.86863 4.86863 0
    endloop
  endfacet
  facet normal -0 0 -1
    outer loop
      vertex 5.11109 4.66965 0
      vertex 0 0 0
      vertex 4.98497 4.76318 0
    endloop
  endfacet
  facet normal -0 0 -1
    outer loop
      vertex 5.24576 4.58893 0
      vertex 0 0 0
      vertex 5.11109 4.66965 0
    endloop
  endfacet
  facet normal -0 0 -1
    outer loop
      vertex 5.38771 4.52179 0
      vertex 0 0 0
      vertex 5.24576 4.58893 0
    endloop
  endfacet
  facet normal -0 0 -1
    outer loop
      vertex 5.53554 4.46889 0
      vertex 0 0 0
      vertex 5.38771 4.52179 0
    endloop
  endfacet
  facet normal -0 0 -1
    outer loop
      vertex 5.68785 4.43074 0
      vertex 0 0 0
      vertex 5.53554 4.46889 0
    endloop
  endfacet
  facet normal -0 0 -1
    outer loop
      vertex 5.84317 4.4077 0
      vertex 0 0 0
      vertex 5.68785 4.43074 0
    endloop
  endfacet
  facet normal 0 0 -1
    outer loop
      vertex 7.59229 6.15683 0
      vertex 25 0 0
      vertex 7.6 6 0
    endloop
  endfacet
  facet normal 0 0 -1
    outer loop
      vertex 7.56926 6.31214 0
      vertex 25 0 0
      vertex 7.59229 6.15683 0
    endloop
  endfacet
  facet normal 0 0 -1
    outer loop
      vertex 7.5311 6.46445 0
      vertex 25 0 0
      vertex 7.56926 6.31214 0
    endloop
  endfacet
  facet normal 0 0 -1
    outer loop
      vertex 7.47821 6.61229 0
      vertex 25 0 0
      vertex 7.5311 6.46445 0
    endloop
  endfacet
  facet normal 0 0 -1
    outer loop
      vertex 7.41107 6.75423 0
      vertex 25 0 0
      vertex 7.47821 6.61229 0
    endloop
  endfacet
  facet normal 0 0 -1
    outer loop
      vertex 7.33035 6.88891 0
      vertex 25 0 0
      vertex 7.41107 6.75423 0
    endloop
  endfacet
  facet normal 0 0 -1
    outer loop
      vertex 7.23682 7.01503 0
      vertex 25 0 0
      vertex 7.33035 6.88891 0
    endloop
  endfacet
  facet normal 0 0 -1
    outer loop
      vertex 7.13137 7.13137 0
      vertex 25 0 0
      vertex 7.23682 7.01503 0
    endloop
  endfacet
  facet normal 0 0 -1
    outer loop
      vertex 0 25 0
      vertex 7.13137 7.13137 0
      vertex 7.01503 7.23682 0
    endloop
  endfacet
  facet normal 0 0 -1
    outer loop
      vertex 0 25 0
      vertex 7.01503 7.23682 0
      vertex 6.88891 7.33035 0
    endloop
  endfacet
  facet normal 0 0 -1
    outer loop
      vertex 0 25 0
      vertex 6.88891 7.33035 0
      vertex 6.75423 7.41107 0
    endloop
  endfacet
  facet normal 0 0 -1
    outer loop
      vertex 0 25 0
      vertex 6.75423 7.41107 0
      vertex 6.61229 7.47821 0
    endloop
  endfacet
  facet normal 0 0 -1
    outer loop
      vertex 0 0 0
      vertex 4.4077 6.15683 0
      vertex 4.4 6 0
    endloop
  endfacet
  facet normal 0 0 -1
    outer loop
      vertex 0 0 0
      vertex 4.43074 6.31214 0
      vertex 4.4077 6.15683 0
    endloop
  endfacet
  facet normal 0 0 -1
    outer loop
      vertex 0 0 0
      vertex 4.46889 6.46445 0
      vertex 4.43074 6.31214 0
    endloop
  endfacet
  facet normal 0 0 -1
    outer loop
      vertex 0 0 0
      vertex 4.52179 6.61229 0
      vertex 4.46889 6.46445 0
    endloop
  endfacet
  facet normal 0 0 -1
    outer loop
      vertex 0 25 0
      vertex 4.52179 6.61229 0
      vertex 0 0 0
    endloop
  endfacet
  facet normal 0 0 -1
    outer loop
      vertex 4.52179 6.61229 0
      vertex 0 25 0
      vertex 4.58893 6.75423 0
    endloop
  endfacet
  facet normal 0 0 -1
    outer loop
      vertex 7.13137 7.13137 0
      vertex 0 25 0
      vertex 25 0 0
    endloop
  endfacet
  facet normal 0 0 -1
    outer loop
      vertex 6.46445 7.5311 0
      vertex 0 25 0
      vertex 6.61229 7.47821 0
    endloop
  endfacet
  facet normal 0 0 -1
    outer loop
      vertex 6.31214 7.56926 0
      vertex 0 25 0
      vertex 6.46445 7.5311 0
    endloop
  endfacet
  facet normal 0 0 -1
    outer loop
      vertex 6.15683 7.59229 0
      vertex 0 25 0
      vertex 6.31214 7.56926 0
    endloop
  endfacet
  facet normal 0 0 -1
    outer loop
      vertex 6 7.6 0
      vertex 0 25 0
      vertex 6.15683 7.59229 0
    endloop
  endfacet
  facet normal 0 0 -1
    outer loop
      vertex 5.84317 7.59229 0
      vertex 0 25 0
      vertex 6 7.6 0
    endloop
  endfacet
  facet normal 0 0 -1
    outer loop
      vertex 5.68785 7.56926 0
      vertex 0 25 0
      vertex 5.84317 7.59229 0
    endloop
  endfacet
  facet normal 0 0 -1
    outer loop
      vertex 5.53554 7.5311 0
      vertex 0 25 0
      vertex 5.68785 7.56926 0
    endloop
  endfacet
  facet normal 0 0 -1
    outer loop
      vertex 5.38771 7.47821 0
      vertex 0 25 0
      vertex 5.53554 7.5311 0
    endloop
  endfacet
  facet normal 0 0 -1
    outer loop
      vertex 5.24576 7.41107 0
      vertex 0 25 0
      vertex 5.38771 7.47821 0
    endloop
  endfacet
  facet normal 0 0 -1
    outer loop
      vertex 5.11109 7.33035 0
      vertex 0 25 0
      vertex 5.24576 7.41107 0
    endloop
  endfacet
  facet normal 0 0 -1
    outer loop
      vertex 4.98497 7.23682 0
      vertex 0 25 0
      vertex 5.11109 7.33035 0
    endloop
  endfacet
  facet normal 0 0 -1
    outer loop
      vertex 4.86863 7.13137 0
      vertex 0 25 0
      vertex 4.98497 7.23682 0
    endloop
  endfacet
  facet normal 0 0 -1
    outer loop
      vertex 4.76318 7.01503 0
      vertex 0 25 0
      vertex 4.86863 7.13137 0
    endloop
  endfacet
  facet normal 0 0 -1
    outer loop
      vertex 4.66965 6.88891 0
      vertex 0 25 0
      vertex 4.76318 7.01503 0
    endloop
  endfacet
  facet normal 0 0 -1
    outer loop
      vertex 4.58893 6.75423 0
      vertex 0 25 0
      vertex 4.66965 6.88891 0
    endloop
  endfacet
  facet normal 0 -1 0
    outer loop
      vertex 0 0 0
      vertex 6 0 3
      vertex 0 0 3
    endloop
  endfacet
  facet normal 0 -1 0
    outer loop
      vertex 25 0 0
      vertex 6 0 3
      vertex 0 0 0
    endloop
  endfacet
  facet normal 0 -1 0
    outer loop
      vertex 6 0 3
      vertex 25 0 0
      vertex 25 0 3
    endloop
  endfacet
  facet normal -0 -0 -1
    outer loop
      vertex 4.4 23 3
      vertex 4.4 20.6 3
      vertex 2 23 3
    endloop
  endfacet
  facet normal 0 0 1
    outer loop
      vertex 2 23 3
      vertex 1.75736 10.2426 3
      vertex 2 10.4626 3
    endloop
  endfacet
  facet normal 0 0 1
    outer loop
      vertex 2 23 3
      vertex 1.36194 9.80636 3
      vertex 1.75736 10.2426 3
    endloop
  endfacet
  facet normal 0 0 1
    outer loop
      vertex 0 25 3
      vertex 1.36194 9.80636 3
      vertex 2 23 3
    endloop
  endfacet
  facet normal 0 0 1
    outer loop
      vertex 1.36194 9.80636 3
      vertex 0 25 3
      vertex 1.01118 9.33342 3
    endloop
  endfacet
  facet normal 0 0 1
    outer loop
      vertex 1.01118 9.33342 3
      vertex 0 25 3
      vertex 0.708472 8.82838 3
    endloop
  endfacet
  facet normal 0 0 1
    outer loop
      vertex 0.708472 8.82838 3
      vertex 0 25 3
      vertex 0.456722 8.2961 3
    endloop
  endfacet
  facet normal 0 0 1
    outer loop
      vertex 0.456722 8.2961 3
      vertex 0 25 3
      vertex 0.258357 7.74171 3
    endloop
  endfacet
  facet normal 0 0 1
    outer loop
      vertex 0.258357 7.74171 3
      vertex 0 25 3
      vertex 0.115288 7.17054 3
    endloop
  endfacet
  facet normal 0 0 1
    outer loop
      vertex 0.115288 7.17054 3
      vertex 0 25 3
      vertex 0.0288916 6.5881 3
    endloop
  endfacet
  facet normal 0 0 1
    outer loop
      vertex 0.0288916 6.5881 3
      vertex 0 25 3
      vertex 0 6 3
    endloop
  endfacet
  facet normal 0 0 1
    outer loop
      vertex 5.4119 0.0288916 3
      vertex 0 0 3
      vertex 6 0 3
    endloop
  endfacet
  facet normal 0 0 1
    outer loop
      vertex 4.82946 0.115288 3
      vertex 0 0 3
      vertex 5.4119 0.0288916 3
    endloop
  endfacet
  facet normal 0 0 1
    outer loop
      vertex 4.25829 0.258357 3
      vertex 0 0 3
      vertex 4.82946 0.115288 3
    endloop
  endfacet
  facet normal 0 0 1
    outer loop
      vertex 3.7039 0.456722 3
      vertex 0 0 3
      vertex 4.25829 0.258357 3
    endloop
  endfacet
  facet normal 0 0 1
    outer loop
      vertex 3.17162 0.708472 3
      vertex 0 0 3
      vertex 3.7039 0.456722 3
    endloop
  endfacet
  facet normal 0 0 1
    outer loop
      vertex 2.66658 1.01118 3
      vertex 0 0 3
      vertex 3.17162 0.708472 3
    endloop
  endfacet
  facet normal 0 0 1
    outer loop
      vertex 2.19364 1.36194 3
      vertex 0 0 3
      vertex 2.66658 1.01118 3
    endloop
  endfacet
  facet normal 0 0 1
    outer loop
      vertex 1.75736 1.75736 3
      vertex 0 0 3
      vertex 2.19364 1.36194 3
    endloop
  endfacet
  facet normal 0 0 1
    outer loop
      vertex 1.36194 2.19364 3
      vertex 0 0 3
      vertex 1.75736 1.75736 3
    endloop
  endfacet
  facet normal 0 0 1
    outer loop
      vertex 1.01118 2.66658 3
      vertex 0 0 3
      vertex 1.36194 2.19364 3
    endloop
  endfacet
  facet normal 0 0 1
    outer loop
      vertex 0.708472 3.17162 3
      vertex 0 0 3
      vertex 1.01118 2.66658 3
    endloop
  endfacet
  facet normal 0 0 1
    outer loop
      vertex 0.456722 3.7039 3
      vertex 0 0 3
      vertex 0.708472 3.17162 3
    endloop
  endfacet
  facet normal 0 0 1
    outer loop
      vertex 0.258357 4.25829 3
      vertex 0 0 3
      vertex 0.456722 3.7039 3
    endloop
  endfacet
  facet normal 0 0 1
    outer loop
      vertex 0.115288 4.82946 3
      vertex 0 0 3
      vertex 0.258357 4.25829 3
    endloop
  endfacet
  facet normal 0 0 1
    outer loop
      vertex 0.0288916 5.4119 3
      vertex 0 0 3
      vertex 0.115288 4.82946 3
    endloop
  endfacet
  facet normal 0 0 1
    outer loop
      vertex 0 0 3
      vertex 0.0288916 5.4119 3
      vertex 0 6 3
    endloop
  endfacet
  facet normal 0 0 1
    outer loop
      vertex 10.2426 1.75736 3
      vertex 23 2 3
      vertex 10.4626 2 3
    endloop
  endfacet
  facet normal 0 0 1
    outer loop
      vertex 9.80636 1.36194 3
      vertex 23 2 3
      vertex 10.2426 1.75736 3
    endloop
  endfacet
  facet normal 0 0 1
    outer loop
      vertex 23 2 3
      vertex 9.80636 1.36194 3
      vertex 25 0 3
    endloop
  endfacet
  facet normal -0 0 1
    outer loop
      vertex 9.33342 1.01118 3
      vertex 25 0 3
      vertex 9.80636 1.36194 3
    endloop
  endfacet
  facet normal -0 0 1
    outer loop
      vertex 8.82838 0.708472 3
      vertex 25 0 3
      vertex 9.33342 1.01118 3
    endloop
  endfacet
  facet normal -0 0 1
    outer loop
      vertex 8.2961 0.456722 3
      vertex 25 0 3
      vertex 8.82838 0.708472 3
    endloop
  endfacet
  facet normal -0 0 1
    outer loop
      vertex 7.74171 0.258357 3
      vertex 25 0 3
      vertex 8.2961 0.456722 3
    endloop
  endfacet
  facet normal -0 0 1
    outer loop
      vertex 7.17054 0.115288 3
      vertex 25 0 3
      vertex 7.74171 0.258357 3
    endloop
  endfacet
  facet normal -0 0 1
    outer loop
      vertex 6.5881 0.0288916 3
      vertex 25 0 3
      vertex 7.17054 0.115288 3
    endloop
  endfacet
  facet normal 0 0 1
    outer loop
      vertex 25 0 3
      vertex 6.5881 0.0288916 3
      vertex 6 0 3
    endloop
  endfacet
  facet normal -0 -0 -1
    outer loop
      vertex 23 4.4 3
      vertex 23 2 3
      vertex 20.6 4.4 3
    endloop
  endfacet
  facet normal 0 0 1
    outer loop
      vertex 20.6 4.4 3
      vertex 11.9711 6.5881 3
      vertex 12 6 3
    endloop
  endfacet
  facet normal 0 0 1
    outer loop
      vertex 20.6 4.4 3
      vertex 11.8847 7.17054 3
      vertex 11.9711 6.5881 3
    endloop
  endfacet
  facet normal 0 0 1
    outer loop
      vertex 20.6 4.4 3
      vertex 11.7416 7.74171 3
      vertex 11.8847 7.17054 3
    endloop
  endfacet
  facet normal 0 0 1
    outer loop
      vertex 20.6 4.4 3
      vertex 11.5433 8.2961 3
      vertex 11.7416 7.74171 3
    endloop
  endfacet
  facet normal 0 0 1
    outer loop
      vertex 20.6 4.4 3
      vertex 11.2915 8.82838 3
      vertex 11.5433 8.2961 3
    endloop
  endfacet
  facet normal 0 0 1
    outer loop
      vertex 20.6 4.4 3
      vertex 10.9888 9.33342 3
      vertex 11.2915 8.82838 3
    endloop
  endfacet
  facet normal 0 0 1
    outer loop
      vertex 20.6 4.4 3
      vertex 10.6381 9.80636 3
      vertex 10.9888 9.33342 3
    endloop
  endfacet
  facet normal 0 0 1
    outer loop
      vertex 20.6 4.4 3
      vertex 10.2426 10.2426 3
      vertex 10.6381 9.80636 3
    endloop
  endfacet
  facet normal 0 0 1
    outer loop
      vertex 4.4 20.6 3
      vertex 10.2426 10.2426 3
      vertex 20.6 4.4 3
    endloop
  endfacet
  facet normal 0 0 1
    outer loop
      vertex 10.2426 10.2426 3
      vertex 4.4 20.6 3
      vertex 9.80636 10.6381 3
    endloop
  endfacet
  facet normal 0 0 1
    outer loop
      vertex 9.80636 10.6381 3
      vertex 4.4 20.6 3
      vertex 9.33342 10.9888 3
    endloop
  endfacet
  facet normal 0 0 1
    outer loop
      vertex 9.33342 10.9888 3
      vertex 4.4 20.6 3
      vertex 8.82838 11.2915 3
    endloop
  endfacet
  facet normal 0 0 1
    outer loop
      vertex 4.4 20.6 3
      vertex 8.2961 11.5433 3
      vertex 8.82838 11.2915 3
    endloop
  endfacet
  facet normal 0 0 1
    outer loop
      vertex 4.4 20.6 3
      vertex 7.74171 11.7416 3
      vertex 8.2961 11.5433 3
    endloop
  endfacet
  facet normal 0 0 1
    outer loop
      vertex 4.4 20.6 3
      vertex 7.17054 11.8847 3
      vertex 7.74171 11.7416 3
    endloop
  endfacet
  facet normal 0 0 1
    outer loop
      vertex 4.4 20.6 3
      vertex 6.5881 11.9711 3
      vertex 7.17054 11.8847 3
    endloop
  endfacet
  facet normal 0 0 1
    outer loop
      vertex 4.4 20.6 3
      vertex 6 12 3
      vertex 6.5881 11.9711 3
    endloop
  endfacet
  facet normal 0 0 1
    outer loop
      vertex 4.4 20.6 3
      vertex 5.4119 11.9711 3
      vertex 6 12 3
    endloop
  endfacet
  facet normal 0 0 1
    outer loop
      vertex 4.4 20.6 3
      vertex 4.82946 11.8847 3
      vertex 5.4119 11.9711 3
    endloop
  endfacet
  facet normal 0 0 1
    outer loop
      vertex 4.82946 11.8847 3
      vertex 4.4 20.6 3
      vertex 4.4 11.7771 3
    endloop
  endfacet
  facet normal -0 0 1
    outer loop
      vertex 11.9711 5.4119 3
      vertex 20.6 4.4 3
      vertex 12 6 3
    endloop
  endfacet
  facet normal -0 0 1
    outer loop
      vertex 11.8847 4.82946 3
      vertex 20.6 4.4 3
      vertex 11.9711 5.4119 3
    endloop
  endfacet
  facet normal 0 0 1
    outer loop
      vertex 20.6 4.4 3
      vertex 11.8847 4.82946 3
      vertex 11.7771 4.4 3
    endloop
  endfacet
  facet normal 0.707107 0.707107 0
    outer loop
      vertex 2 23 3
      vertex 0 25 0
      vertex 0 25 3
    endloop
  endfacet
  facet normal 0.707107 0.707107 3.48909e-16
    outer loop
      vertex 4.4 20.6 3
      vertex 0 25 0
      vertex 2 23 3
    endloop
  endfacet
  facet normal 0.707107 0.707107 0
    outer loop
      vertex 20.6 4.4 3
      vertex 0 25 0
      vertex 4.4 20.6 3
    endloop
  endfacet
  facet normal 0.707107 0.707107 3.48909e-16
    outer loop
      vertex 25 0 0
      vertex 20.6 4.4 3
      vertex 23 2 3
    endloop
  endfacet
  facet normal 0.707107 0.707107 -0
    outer loop
      vertex 25 0 0
      vertex 23 2 3
      vertex 25 0 3
    endloop
  endfacet
  facet normal 0.707107 0.707107 -4.01944e-16
    outer loop
      vertex 20.6 4.4 3
      vertex 25 0 0
      vertex 0 25 0
    endloop
  endfacet
  facet normal -1 0 0
    outer loop
      vertex 0 25 0
      vertex 0 6 3
      vertex 0 25 3
    endloop
  endfacet
  facet normal -1 0 0
    outer loop
      vertex 0 0 0
      vertex 0 6 3
      vertex 0 25 0
    endloop
  endfacet
  facet normal -1 -0 0
    outer loop
      vertex 0 6 3
      vertex 0 0 0
      vertex 0 0 3
    endloop
  endfacet
  facet normal 0.989176 0.146736 0
    outer loop
      vertex 11.9711 6.5881 15
      vertex 11.8847 7.17054 3
      vertex 11.8847 7.17054 15
    endloop
  endfacet
  facet normal 0.989176 0.146736 0
    outer loop
      vertex 11.8847 7.17054 3
      vertex 11.9711 6.5881 15
      vertex 11.9711 6.5881 3
    endloop
  endfacet
  facet normal -0.0490678 -0.998795 0
    outer loop
      vertex 5.4119 0.0288916 3
      vertex 6 0 15
      vertex 5.4119 0.0288916 15
    endloop
  endfacet
  facet normal -0.0490678 -0.998795 -0
    outer loop
      vertex 6 0 15
      vertex 5.4119 0.0288916 3
      vertex 6 0 3
    endloop
  endfacet
  facet normal 0.740854 0.671666 0
    outer loop
      vertex 10.6381 9.80636 15
      vertex 10.2426 10.2426 3
      vertex 10.2426 10.2426 15
    endloop
  endfacet
  facet normal 0.740854 0.671666 0
    outer loop
      vertex 10.2426 10.2426 3
      vertex 10.6381 9.80636 15
      vertex 10.6381 9.80636 3
    endloop
  endfacet
  facet normal 0.242978 -0.970032 0
    outer loop
      vertex 7.17054 0.115288 3
      vertex 7.74171 0.258357 15
      vertex 7.17054 0.115288 15
    endloop
  endfacet
  facet normal 0.242978 -0.970032 0
    outer loop
      vertex 7.74171 0.258357 15
      vertex 7.17054 0.115288 3
      vertex 7.74171 0.258357 3
    endloop
  endfacet
  facet normal 0.803253 -0.595638 0
    outer loop
      vertex 10.6381 2.19364 11.7262
      vertex 10.9888 2.66658 15
      vertex 10.6381 2.19364 15
    endloop
  endfacet
  facet normal 0.803253 -0.595638 0
    outer loop
      vertex 10.9888 2.66658 15
      vertex 10.6381 2.19364 11.7262
      vertex 10.9888 2.66658 11.507
    endloop
  endfacet
  facet normal 0.595703 -0.803204 0
    outer loop
      vertex 9.33342 1.01118 3
      vertex 9.80636 1.36194 15
      vertex 9.33342 1.01118 15
    endloop
  endfacet
  facet normal 0.595703 -0.803204 0
    outer loop
      vertex 9.80636 1.36194 15
      vertex 9.33342 1.01118 3
      vertex 9.80636 1.36194 3
    endloop
  endfacet
  facet normal -0.803204 0.595703 0
    outer loop
      vertex 1.01118 9.33342 3
      vertex 1.36194 9.80636 15
      vertex 1.36194 9.80636 3
    endloop
  endfacet
  facet normal -0.803204 0.595703 0
    outer loop
      vertex 1.36194 9.80636 15
      vertex 1.01118 9.33342 3
      vertex 1.01118 9.33342 15
    endloop
  endfacet
  facet normal 0.941578 0.336794 0
    outer loop
      vertex 11.7416 7.74171 15
      vertex 11.5433 8.2961 3
      vertex 11.5433 8.2961 15
    endloop
  endfacet
  facet normal 0.941578 0.336794 0
    outer loop
      vertex 11.5433 8.2961 3
      vertex 11.7416 7.74171 15
      vertex 11.7416 7.74171 3
    endloop
  endfacet
  facet normal -0.941543 -0.336891 0
    outer loop
      vertex 0.456722 3.7039 3
      vertex 0.258357 4.25829 15
      vertex 0.258357 4.25829 3
    endloop
  endfacet
  facet normal -0.941543 -0.336891 0
    outer loop
      vertex 0.258357 4.25829 15
      vertex 0.456722 3.7039 3
      vertex 0.456722 3.7039 15
    endloop
  endfacet
  facet normal 0.336794 0.941578 -0
    outer loop
      vertex 8.2961 11.5433 3
      vertex 7.74171 11.7416 15
      vertex 8.2961 11.5433 15
    endloop
  endfacet
  facet normal 0.336794 0.941578 0
    outer loop
      vertex 7.74171 11.7416 15
      vertex 8.2961 11.5433 3
      vertex 7.74171 11.7416 3
    endloop
  endfacet
  facet normal 0.671592 -0.740921 0
    outer loop
      vertex 9.80636 1.36194 3
      vertex 10.2426 1.75736 15
      vertex 9.80636 1.36194 15
    endloop
  endfacet
  facet normal 0.671592 -0.740921 0
    outer loop
      vertex 10.2426 1.75736 15
      vertex 9.80636 1.36194 3
      vertex 10.2426 1.75736 3
    endloop
  endfacet
  facet normal 0.989176 -0.146736 0
    outer loop
      vertex 11.8847 4.82946 15
      vertex 11.9711 5.4119 3
      vertex 11.9711 5.4119 15
    endloop
  endfacet
  facet normal 0.989176 -0.146736 0
    outer loop
      vertex 11.9711 5.4119 3
      vertex 11.8847 4.82946 15
      vertex 11.8847 4.82946 3
    endloop
  endfacet
  facet normal -0.740952 -0.671558 0
    outer loop
      vertex 1.75736 1.75736 3
      vertex 1.36194 2.19364 15
      vertex 1.36194 2.19364 3
    endloop
  endfacet
  facet normal -0.740952 -0.671558 0
    outer loop
      vertex 1.36194 2.19364 15
      vertex 1.75736 1.75736 3
      vertex 1.75736 1.75736 15
    endloop
  endfacet
  facet normal 0.903956 -0.427625 0
    outer loop
      vertex 11.2915 3.17162 11.3178
      vertex 11.5433 3.7039 15
      vertex 11.2915 3.17162 15
    endloop
  endfacet
  facet normal 0.903956 -0.427625 0
    outer loop
      vertex 11.5433 3.7039 15
      vertex 11.2915 3.17162 11.3178
      vertex 11.5433 3.7039 11.1605
    endloop
  endfacet
  facet normal -0.0490821 0.998795 0
    outer loop
      vertex 6 12 3
      vertex 5.4119 11.9711 15
      vertex 6 12 15
    endloop
  endfacet
  facet normal -0.0490821 0.998795 0
    outer loop
      vertex 5.4119 11.9711 15
      vertex 6 12 3
      vertex 5.4119 11.9711 3
    endloop
  endfacet
  facet normal -0.85773 -0.514101 0
    outer loop
      vertex 1.01118 2.66658 3
      vertex 0.708472 3.17162 15
      vertex 0.708472 3.17162 3
    endloop
  endfacet
  facet normal -0.85773 -0.514101 0
    outer loop
      vertex 0.708472 3.17162 15
      vertex 1.01118 2.66658 3
      vertex 1.01118 2.66658 15
    endloop
  endfacet
  facet normal 0.998795 0.0490821 0
    outer loop
      vertex 12 6 15
      vertex 11.9711 6.5881 3
      vertex 11.9711 6.5881 15
    endloop
  endfacet
  facet normal 0.998795 0.0490821 0
    outer loop
      vertex 11.9711 6.5881 3
      vertex 12 6 15
      vertex 12 6 3
    endloop
  endfacet
  facet normal 0.970019 0.243027 0
    outer loop
      vertex 11.8847 7.17054 15
      vertex 11.7416 7.74171 3
      vertex 11.7416 7.74171 15
    endloop
  endfacet
  facet normal 0.970019 0.243027 0
    outer loop
      vertex 11.7416 7.74171 3
      vertex 11.8847 7.17054 15
      vertex 11.8847 7.17054 3
    endloop
  endfacet
  facet normal -0.146736 0.989176 0
    outer loop
      vertex 5.4119 11.9711 3
      vertex 4.82946 11.8847 15
      vertex 5.4119 11.9711 15
    endloop
  endfacet
  facet normal -0.146736 0.989176 0
    outer loop
      vertex 4.82946 11.8847 15
      vertex 5.4119 11.9711 3
      vertex 4.82946 11.8847 3
    endloop
  endfacet
  facet normal -0.243027 0.970019 0
    outer loop
      vertex 4.82946 11.8847 15
      vertex 4.25829 11.7416 11.0365
      vertex 4.25829 11.7416 15
    endloop
  endfacet
  facet normal -0.243003 0.970025 -3.65819e-06
    outer loop
      vertex 4.82946 11.8847 15
      vertex 4.4 11.7771 11.0143
      vertex 4.25829 11.7416 11.0365
    endloop
  endfacet
  facet normal -0.243035 0.970017 0
    outer loop
      vertex 4.82946 11.8847 3
      vertex 4.4 11.7771 11.0143
      vertex 4.82946 11.8847 15
    endloop
  endfacet
  facet normal -0.243035 0.970017 0
    outer loop
      vertex 4.4 11.7771 11.0143
      vertex 4.82946 11.8847 3
      vertex 4.4 11.7771 3
    endloop
  endfacet
  facet normal 0.0490678 -0.998795 0
    outer loop
      vertex 6 0 3
      vertex 6.5881 0.0288916 15
      vertex 6 0 15
    endloop
  endfacet
  facet normal 0.0490678 -0.998795 0
    outer loop
      vertex 6.5881 0.0288916 15
      vertex 6 0 3
      vertex 6.5881 0.0288916 3
    endloop
  endfacet
  facet normal -0.336891 -0.941543 0
    outer loop
      vertex 3.7039 0.456722 3
      vertex 4.25829 0.258357 15
      vertex 3.7039 0.456722 15
    endloop
  endfacet
  facet normal -0.336891 -0.941543 -0
    outer loop
      vertex 4.25829 0.258357 15
      vertex 3.7039 0.456722 3
      vertex 4.25829 0.258357 3
    endloop
  endfacet
  facet normal 0.671666 0.740854 -0
    outer loop
      vertex 10.2426 10.2426 3
      vertex 9.80636 10.6381 15
      vertex 10.2426 10.2426 15
    endloop
  endfacet
  facet normal 0.671666 0.740854 0
    outer loop
      vertex 9.80636 10.6381 15
      vertex 10.2426 10.2426 3
      vertex 9.80636 10.6381 3
    endloop
  endfacet
  facet normal 0.514091 0.857736 -0
    outer loop
      vertex 9.33342 10.9888 3
      vertex 8.82838 11.2915 15
      vertex 9.33342 10.9888 15
    endloop
  endfacet
  facet normal 0.514091 0.857736 0
    outer loop
      vertex 8.82838 11.2915 15
      vertex 9.33342 10.9888 3
      vertex 8.82838 11.2915 3
    endloop
  endfacet
  facet normal 0.903956 0.427625 0
    outer loop
      vertex 11.5433 8.2961 15
      vertex 11.2915 8.82838 3
      vertex 11.2915 8.82838 15
    endloop
  endfacet
  facet normal 0.903956 0.427625 0
    outer loop
      vertex 11.2915 8.82838 3
      vertex 11.5433 8.2961 15
      vertex 11.5433 8.2961 3
    endloop
  endfacet
  facet normal -0.336794 0.941578 0
    outer loop
      vertex 4.25829 11.7416 15
      vertex 3.7039 11.5433 11.1605
      vertex 3.7039 11.5433 15
    endloop
  endfacet
  facet normal -0.336794 0.941578 0
    outer loop
      vertex 3.7039 11.5433 11.1605
      vertex 4.25829 11.7416 15
      vertex 4.25829 11.7416 11.0365
    endloop
  endfacet
  facet normal -0.671558 -0.740952 0
    outer loop
      vertex 1.75736 1.75736 3
      vertex 2.19364 1.36194 15
      vertex 1.75736 1.75736 15
    endloop
  endfacet
  facet normal -0.671558 -0.740952 -0
    outer loop
      vertex 2.19364 1.36194 15
      vertex 1.75736 1.75736 3
      vertex 2.19364 1.36194 3
    endloop
  endfacet
  facet normal -0.998795 0.0490678 0
    outer loop
      vertex 0 6 3
      vertex 0.0288916 6.5881 15
      vertex 0.0288916 6.5881 3
    endloop
  endfacet
  facet normal -0.998795 0.0490678 0
    outer loop
      vertex 0.0288916 6.5881 15
      vertex 0 6 3
      vertex 0 6 15
    endloop
  endfacet
  facet normal -0.740921 0.671592 0
    outer loop
      vertex 1.36194 9.80636 3
      vertex 1.75736 10.2426 15
      vertex 1.75736 10.2426 3
    endloop
  endfacet
  facet normal -0.740921 0.671592 0
    outer loop
      vertex 1.75736 10.2426 15
      vertex 1.36194 9.80636 3
      vertex 1.36194 9.80636 15
    endloop
  endfacet
  facet normal 0.0490821 0.998795 -0
    outer loop
      vertex 6.5881 11.9711 3
      vertex 6 12 15
      vertex 6.5881 11.9711 15
    endloop
  endfacet
  facet normal 0.0490821 0.998795 0
    outer loop
      vertex 6 12 15
      vertex 6.5881 11.9711 3
      vertex 6 12 3
    endloop
  endfacet
  facet normal 0.998795 -0.0490821 0
    outer loop
      vertex 11.9711 5.4119 15
      vertex 12 6 3
      vertex 12 6 15
    endloop
  endfacet
  facet normal 0.998795 -0.0490821 0
    outer loop
      vertex 12 6 3
      vertex 11.9711 5.4119 15
      vertex 11.9711 5.4119 3
    endloop
  endfacet
  facet normal 0.336891 -0.941543 0
    outer loop
      vertex 7.74171 0.258357 3
      vertex 8.2961 0.456722 15
      vertex 7.74171 0.258357 15
    endloop
  endfacet
  facet normal 0.336891 -0.941543 0
    outer loop
      vertex 8.2961 0.456722 15
      vertex 7.74171 0.258357 3
      vertex 8.2961 0.456722 3
    endloop
  endfacet
  facet normal -0.803204 -0.595703 0
    outer loop
      vertex 1.36194 2.19364 3
      vertex 1.01118 2.66658 15
      vertex 1.01118 2.66658 3
    endloop
  endfacet
  facet normal -0.803204 -0.595703 0
    outer loop
      vertex 1.01118 2.66658 15
      vertex 1.36194 2.19364 3
      vertex 1.36194 2.19364 15
    endloop
  endfacet
  facet normal 0.427625 0.903956 -0
    outer loop
      vertex 8.82838 11.2915 3
      vertex 8.2961 11.5433 15
      vertex 8.82838 11.2915 15
    endloop
  endfacet
  facet normal 0.427625 0.903956 0
    outer loop
      vertex 8.2961 11.5433 15
      vertex 8.82838 11.2915 3
      vertex 8.2961 11.5433 3
    endloop
  endfacet
  facet normal 0.595638 0.803253 -0
    outer loop
      vertex 9.80636 10.6381 3
      vertex 9.33342 10.9888 15
      vertex 9.80636 10.6381 15
    endloop
  endfacet
  facet normal 0.595638 0.803253 0
    outer loop
      vertex 9.33342 10.9888 15
      vertex 9.80636 10.6381 3
      vertex 9.33342 10.9888 3
    endloop
  endfacet
  facet normal 0.857736 -0.514091 0
    outer loop
      vertex 10.9888 2.66658 11.507
      vertex 11.2915 3.17162 15
      vertex 10.9888 2.66658 15
    endloop
  endfacet
  facet normal 0.857736 -0.514091 0
    outer loop
      vertex 11.2915 3.17162 15
      vertex 10.9888 2.66658 11.507
      vertex 11.2915 3.17162 11.3178
    endloop
  endfacet
  facet normal -0.595638 0.803253 0
    outer loop
      vertex 2.66658 10.9888 15
      vertex 2.19364 10.6381 11.7262
      vertex 2.19364 10.6381 15
    endloop
  endfacet
  facet normal -0.595638 0.803253 0
    outer loop
      vertex 2.19364 10.6381 11.7262
      vertex 2.66658 10.9888 15
      vertex 2.66658 10.9888 11.507
    endloop
  endfacet
  facet normal -0.998795 -0.0490678 0
    outer loop
      vertex 0.0288916 5.4119 3
      vertex 0 6 15
      vertex 0 6 3
    endloop
  endfacet
  facet normal -0.998795 -0.0490678 0
    outer loop
      vertex 0 6 15
      vertex 0.0288916 5.4119 3
      vertex 0.0288916 5.4119 15
    endloop
  endfacet
  facet normal -0.989177 -0.14673 0
    outer loop
      vertex 0.115288 4.82946 3
      vertex 0.0288916 5.4119 15
      vertex 0.0288916 5.4119 3
    endloop
  endfacet
  facet normal -0.989177 -0.14673 0
    outer loop
      vertex 0.0288916 5.4119 15
      vertex 0.115288 4.82946 3
      vertex 0.115288 4.82946 15
    endloop
  endfacet
  facet normal 0.14673 -0.989177 0
    outer loop
      vertex 6.5881 0.0288916 3
      vertex 7.17054 0.115288 15
      vertex 6.5881 0.0288916 15
    endloop
  endfacet
  facet normal 0.14673 -0.989177 0
    outer loop
      vertex 7.17054 0.115288 15
      vertex 6.5881 0.0288916 3
      vertex 7.17054 0.115288 3
    endloop
  endfacet
  facet normal -0.427556 -0.903989 0
    outer loop
      vertex 3.17162 0.708472 3
      vertex 3.7039 0.456722 15
      vertex 3.17162 0.708472 15
    endloop
  endfacet
  facet normal -0.427556 -0.903989 -0
    outer loop
      vertex 3.7039 0.456722 15
      vertex 3.17162 0.708472 3
      vertex 3.7039 0.456722 3
    endloop
  endfacet
  facet normal 0.803253 0.595638 0
    outer loop
      vertex 10.9888 9.33342 15
      vertex 10.6381 9.80636 3
      vertex 10.6381 9.80636 15
    endloop
  endfacet
  facet normal 0.803253 0.595638 0
    outer loop
      vertex 10.6381 9.80636 3
      vertex 10.9888 9.33342 15
      vertex 10.9888 9.33342 3
    endloop
  endfacet
  facet normal 0.970017 -0.243035 0
    outer loop
      vertex 11.8847 4.82946 15
      vertex 11.7771 4.4 11.0143
      vertex 11.8847 4.82946 3
    endloop
  endfacet
  facet normal 0.970019 -0.243027 0
    outer loop
      vertex 11.7416 4.25829 11.0365
      vertex 11.8847 4.82946 15
      vertex 11.7416 4.25829 15
    endloop
  endfacet
  facet normal 0.970025 -0.243003 -3.65819e-06
    outer loop
      vertex 11.8847 4.82946 15
      vertex 11.7416 4.25829 11.0365
      vertex 11.7771 4.4 11.0143
    endloop
  endfacet
  facet normal 0.970017 -0.243035 0
    outer loop
      vertex 11.8847 4.82946 3
      vertex 11.7771 4.4 11.0143
      vertex 11.7771 4.4 3
    endloop
  endfacet
  facet normal 0.941578 -0.336794 0
    outer loop
      vertex 11.5433 3.7039 11.1605
      vertex 11.7416 4.25829 15
      vertex 11.5433 3.7039 15
    endloop
  endfacet
  facet normal 0.941578 -0.336794 0
    outer loop
      vertex 11.7416 4.25829 15
      vertex 11.5433 3.7039 11.1605
      vertex 11.7416 4.25829 11.0365
    endloop
  endfacet
  facet normal -0.595703 -0.803204 0
    outer loop
      vertex 2.19364 1.36194 3
      vertex 2.66658 1.01118 15
      vertex 2.19364 1.36194 15
    endloop
  endfacet
  facet normal -0.595703 -0.803204 -0
    outer loop
      vertex 2.66658 1.01118 15
      vertex 2.19364 1.36194 3
      vertex 2.66658 1.01118 3
    endloop
  endfacet
  facet normal 0.857736 0.514091 0
    outer loop
      vertex 11.2915 8.82838 15
      vertex 10.9888 9.33342 3
      vertex 10.9888 9.33342 15
    endloop
  endfacet
  facet normal 0.857736 0.514091 0
    outer loop
      vertex 10.9888 9.33342 3
      vertex 11.2915 8.82838 15
      vertex 11.2915 8.82838 3
    endloop
  endfacet
  facet normal -0.242978 -0.970032 0
    outer loop
      vertex 4.25829 0.258357 3
      vertex 4.82946 0.115288 15
      vertex 4.25829 0.258357 15
    endloop
  endfacet
  facet normal -0.242978 -0.970032 -0
    outer loop
      vertex 4.82946 0.115288 15
      vertex 4.25829 0.258357 3
      vertex 4.82946 0.115288 3
    endloop
  endfacet
  facet normal -0.671632 0.740884 9.38159e-06
    outer loop
      vertex 2.19364 10.6381 15
      vertex 2 10.4626 11.8359
      vertex 1.75736 10.2426 15
    endloop
  endfacet
  facet normal -0.671548 0.740961 0
    outer loop
      vertex 2 10.4626 11.8359
      vertex 2.19364 10.6381 15
      vertex 2.19364 10.6381 11.7262
    endloop
  endfacet
  facet normal -0.6717 0.740824 0
    outer loop
      vertex 1.75736 10.2426 3
      vertex 2 10.4626 11.8359
      vertex 2 10.4626 3
    endloop
  endfacet
  facet normal -0.6717 0.740824 0
    outer loop
      vertex 2 10.4626 11.8359
      vertex 1.75736 10.2426 3
      vertex 1.75736 10.2426 15
    endloop
  endfacet
  facet normal -0.903989 -0.427556 0
    outer loop
      vertex 0.708472 3.17162 3
      vertex 0.456722 3.7039 15
      vertex 0.456722 3.7039 3
    endloop
  endfacet
  facet normal -0.903989 -0.427556 0
    outer loop
      vertex 0.456722 3.7039 15
      vertex 0.708472 3.17162 3
      vertex 0.708472 3.17162 15
    endloop
  endfacet
  facet normal 0.146736 0.989176 -0
    outer loop
      vertex 7.17054 11.8847 3
      vertex 6.5881 11.9711 15
      vertex 7.17054 11.8847 15
    endloop
  endfacet
  facet normal 0.146736 0.989176 0
    outer loop
      vertex 6.5881 11.9711 15
      vertex 7.17054 11.8847 3
      vertex 6.5881 11.9711 3
    endloop
  endfacet
  facet normal -0.85773 0.514101 0
    outer loop
      vertex 0.708472 8.82838 3
      vertex 1.01118 9.33342 15
      vertex 1.01118 9.33342 3
    endloop
  endfacet
  facet normal -0.85773 0.514101 0
    outer loop
      vertex 1.01118 9.33342 15
      vertex 0.708472 8.82838 3
      vertex 0.708472 8.82838 15
    endloop
  endfacet
  facet normal -0.989177 0.14673 0
    outer loop
      vertex 0.0288916 6.5881 3
      vertex 0.115288 7.17054 15
      vertex 0.115288 7.17054 3
    endloop
  endfacet
  facet normal -0.989177 0.14673 0
    outer loop
      vertex 0.115288 7.17054 15
      vertex 0.0288916 6.5881 3
      vertex 0.0288916 6.5881 15
    endloop
  endfacet
  facet normal -0.970032 0.242978 0
    outer loop
      vertex 0.115288 7.17054 3
      vertex 0.258357 7.74171 15
      vertex 0.258357 7.74171 3
    endloop
  endfacet
  facet normal -0.970032 0.242978 0
    outer loop
      vertex 0.258357 7.74171 15
      vertex 0.115288 7.17054 3
      vertex 0.115288 7.17054 15
    endloop
  endfacet
  facet normal -0.14673 -0.989177 0
    outer loop
      vertex 4.82946 0.115288 3
      vertex 5.4119 0.0288916 15
      vertex 4.82946 0.115288 15
    endloop
  endfacet
  facet normal -0.14673 -0.989177 -0
    outer loop
      vertex 5.4119 0.0288916 15
      vertex 4.82946 0.115288 3
      vertex 5.4119 0.0288916 3
    endloop
  endfacet
  facet normal -0.427625 0.903956 0
    outer loop
      vertex 3.7039 11.5433 15
      vertex 3.17162 11.2915 11.3178
      vertex 3.17162 11.2915 15
    endloop
  endfacet
  facet normal -0.427625 0.903956 0
    outer loop
      vertex 3.17162 11.2915 11.3178
      vertex 3.7039 11.5433 15
      vertex 3.7039 11.5433 11.1605
    endloop
  endfacet
  facet normal 0.740961 -0.671548 0
    outer loop
      vertex 10.6381 2.19364 15
      vertex 10.4626 2 11.8359
      vertex 10.6381 2.19364 11.7262
    endloop
  endfacet
  facet normal 0.740884 -0.671632 9.38159e-06
    outer loop
      vertex 10.2426 1.75736 15
      vertex 10.4626 2 11.8359
      vertex 10.6381 2.19364 15
    endloop
  endfacet
  facet normal 0.740824 -0.6717 0
    outer loop
      vertex 10.2426 1.75736 3
      vertex 10.4626 2 11.8359
      vertex 10.2426 1.75736 15
    endloop
  endfacet
  facet normal 0.740824 -0.6717 0
    outer loop
      vertex 10.4626 2 11.8359
      vertex 10.2426 1.75736 3
      vertex 10.4626 2 3
    endloop
  endfacet
  facet normal -0.941543 0.336891 0
    outer loop
      vertex 0.258357 7.74171 3
      vertex 0.456722 8.2961 15
      vertex 0.456722 8.2961 3
    endloop
  endfacet
  facet normal -0.941543 0.336891 0
    outer loop
      vertex 0.456722 8.2961 15
      vertex 0.258357 7.74171 3
      vertex 0.258357 7.74171 15
    endloop
  endfacet
  facet normal -0.970032 -0.242978 0
    outer loop
      vertex 0.258357 4.25829 3
      vertex 0.115288 4.82946 15
      vertex 0.115288 4.82946 3
    endloop
  endfacet
  facet normal -0.970032 -0.242978 0
    outer loop
      vertex 0.115288 4.82946 15
      vertex 0.258357 4.25829 3
      vertex 0.258357 4.25829 15
    endloop
  endfacet
  facet normal 0.243027 0.970019 -0
    outer loop
      vertex 7.74171 11.7416 3
      vertex 7.17054 11.8847 15
      vertex 7.74171 11.7416 15
    endloop
  endfacet
  facet normal 0.243027 0.970019 0
    outer loop
      vertex 7.17054 11.8847 15
      vertex 7.74171 11.7416 3
      vertex 7.17054 11.8847 3
    endloop
  endfacet
  facet normal 0.427556 -0.903989 0
    outer loop
      vertex 8.2961 0.456722 3
      vertex 8.82838 0.708472 15
      vertex 8.2961 0.456722 15
    endloop
  endfacet
  facet normal 0.427556 -0.903989 0
    outer loop
      vertex 8.82838 0.708472 15
      vertex 8.2961 0.456722 3
      vertex 8.82838 0.708472 3
    endloop
  endfacet
  facet normal 0.514101 -0.85773 0
    outer loop
      vertex 8.82838 0.708472 3
      vertex 9.33342 1.01118 15
      vertex 8.82838 0.708472 15
    endloop
  endfacet
  facet normal 0.514101 -0.85773 0
    outer loop
      vertex 9.33342 1.01118 15
      vertex 8.82838 0.708472 3
      vertex 9.33342 1.01118 3
    endloop
  endfacet
  facet normal 0 0 1
    outer loop
      vertex 7.6 6 15
      vertex 12 6 15
      vertex 11.9711 6.5881 15
    endloop
  endfacet
  facet normal 0 0 1
    outer loop
      vertex 7.59229 6.15683 15
      vertex 11.9711 6.5881 15
      vertex 11.8847 7.17054 15
    endloop
  endfacet
  facet normal 0 0 1
    outer loop
      vertex 12 6 15
      vertex 7.6 6 15
      vertex 11.9711 5.4119 15
    endloop
  endfacet
  facet normal 0 0 1
    outer loop
      vertex 7.56926 6.31214 15
      vertex 11.8847 7.17054 15
      vertex 11.7416 7.74171 15
    endloop
  endfacet
  facet normal -0 0 1
    outer loop
      vertex 7.59229 5.84317 15
      vertex 11.9711 5.4119 15
      vertex 7.6 6 15
    endloop
  endfacet
  facet normal 0 0 1
    outer loop
      vertex 7.5311 6.46445 15
      vertex 11.7416 7.74171 15
      vertex 11.5433 8.2961 15
    endloop
  endfacet
  facet normal 0 0 1
    outer loop
      vertex 11.9711 5.4119 15
      vertex 7.59229 5.84317 15
      vertex 11.8847 4.82946 15
    endloop
  endfacet
  facet normal 0 0 1
    outer loop
      vertex 7.47821 6.61229 15
      vertex 11.5433 8.2961 15
      vertex 11.2915 8.82838 15
    endloop
  endfacet
  facet normal -0 0 1
    outer loop
      vertex 7.56926 5.68785 15
      vertex 11.8847 4.82946 15
      vertex 7.59229 5.84317 15
    endloop
  endfacet
  facet normal 0 0 1
    outer loop
      vertex 7.41107 6.75423 15
      vertex 11.2915 8.82838 15
      vertex 10.9888 9.33342 15
    endloop
  endfacet
  facet normal 0 0 1
    outer loop
      vertex 11.8847 4.82946 15
      vertex 7.56926 5.68785 15
      vertex 11.7416 4.25829 15
    endloop
  endfacet
  facet normal 0 0 1
    outer loop
      vertex 7.33035 6.88891 15
      vertex 10.9888 9.33342 15
      vertex 10.6381 9.80636 15
    endloop
  endfacet
  facet normal -0 0 1
    outer loop
      vertex 7.5311 5.53554 15
      vertex 11.7416 4.25829 15
      vertex 7.56926 5.68785 15
    endloop
  endfacet
  facet normal 0 0 1
    outer loop
      vertex 7.23682 7.01503 15
      vertex 10.6381 9.80636 15
      vertex 10.2426 10.2426 15
    endloop
  endfacet
  facet normal 0 0 1
    outer loop
      vertex 11.7416 4.25829 15
      vertex 7.5311 5.53554 15
      vertex 11.5433 3.7039 15
    endloop
  endfacet
  facet normal 0 0 1
    outer loop
      vertex 7.13137 7.13137 15
      vertex 10.2426 10.2426 15
      vertex 9.80636 10.6381 15
    endloop
  endfacet
  facet normal -0 0 1
    outer loop
      vertex 7.47821 5.38771 15
      vertex 11.5433 3.7039 15
      vertex 7.5311 5.53554 15
    endloop
  endfacet
  facet normal 0 0 1
    outer loop
      vertex 7.01503 7.23682 15
      vertex 9.80636 10.6381 15
      vertex 9.33342 10.9888 15
    endloop
  endfacet
  facet normal 0 0 1
    outer loop
      vertex 11.5433 3.7039 15
      vertex 7.47821 5.38771 15
      vertex 11.2915 3.17162 15
    endloop
  endfacet
  facet normal 0 0 1
    outer loop
      vertex 6.88891 7.33035 15
      vertex 9.33342 10.9888 15
      vertex 8.82838 11.2915 15
    endloop
  endfacet
  facet normal -0 0 1
    outer loop
      vertex 7.41107 5.24576 15
      vertex 11.2915 3.17162 15
      vertex 7.47821 5.38771 15
    endloop
  endfacet
  facet normal 0 0 1
    outer loop
      vertex 6.75423 7.41107 15
      vertex 8.82838 11.2915 15
      vertex 8.2961 11.5433 15
    endloop
  endfacet
  facet normal 0 0 1
    outer loop
      vertex 11.2915 3.17162 15
      vertex 7.41107 5.24576 15
      vertex 10.9888 2.66658 15
    endloop
  endfacet
  facet normal 0 0 1
    outer loop
      vertex 6.61229 7.47821 15
      vertex 8.2961 11.5433 15
      vertex 7.74171 11.7416 15
    endloop
  endfacet
  facet normal -0 0 1
    outer loop
      vertex 7.33035 5.11109 15
      vertex 10.9888 2.66658 15
      vertex 7.41107 5.24576 15
    endloop
  endfacet
  facet normal 0 0 1
    outer loop
      vertex 10.9888 2.66658 15
      vertex 7.33035 5.11109 15
      vertex 10.6381 2.19364 15
    endloop
  endfacet
  facet normal 0 0 1
    outer loop
      vertex 11.9711 6.5881 15
      vertex 7.59229 6.15683 15
      vertex 7.6 6 15
    endloop
  endfacet
  facet normal 0 0 1
    outer loop
      vertex 11.8847 7.17054 15
      vertex 7.56926 6.31214 15
      vertex 7.59229 6.15683 15
    endloop
  endfacet
  facet normal 0 0 1
    outer loop
      vertex 11.7416 7.74171 15
      vertex 7.5311 6.46445 15
      vertex 7.56926 6.31214 15
    endloop
  endfacet
  facet normal 0 0 1
    outer loop
      vertex 11.5433 8.2961 15
      vertex 7.47821 6.61229 15
      vertex 7.5311 6.46445 15
    endloop
  endfacet
  facet normal 0 0 1
    outer loop
      vertex 11.2915 8.82838 15
      vertex 7.41107 6.75423 15
      vertex 7.47821 6.61229 15
    endloop
  endfacet
  facet normal 0 0 1
    outer loop
      vertex 10.9888 9.33342 15
      vertex 7.33035 6.88891 15
      vertex 7.41107 6.75423 15
    endloop
  endfacet
  facet normal 0 0 1
    outer loop
      vertex 10.6381 9.80636 15
      vertex 7.23682 7.01503 15
      vertex 7.33035 6.88891 15
    endloop
  endfacet
  facet normal 0 0 1
    outer loop
      vertex 6.46445 7.5311 15
      vertex 7.74171 11.7416 15
      vertex 7.17054 11.8847 15
    endloop
  endfacet
  facet normal 0 0 1
    outer loop
      vertex 10.2426 10.2426 15
      vertex 7.13137 7.13137 15
      vertex 7.23682 7.01503 15
    endloop
  endfacet
  facet normal 0 0 1
    outer loop
      vertex 9.80636 10.6381 15
      vertex 7.01503 7.23682 15
      vertex 7.13137 7.13137 15
    endloop
  endfacet
  facet normal 0 0 1
    outer loop
      vertex 9.33342 10.9888 15
      vertex 6.88891 7.33035 15
      vertex 7.01503 7.23682 15
    endloop
  endfacet
  facet normal 0 0 1
    outer loop
      vertex 8.82838 11.2915 15
      vertex 6.75423 7.41107 15
      vertex 6.88891 7.33035 15
    endloop
  endfacet
  facet normal 0 0 1
    outer loop
      vertex 8.2961 11.5433 15
      vertex 6.61229 7.47821 15
      vertex 6.75423 7.41107 15
    endloop
  endfacet
  facet normal 0 0 1
    outer loop
      vertex 6.31214 7.56926 15
      vertex 7.17054 11.8847 15
      vertex 6.5881 11.9711 15
    endloop
  endfacet
  facet normal 0 0 1
    outer loop
      vertex 7.74171 11.7416 15
      vertex 6.46445 7.5311 15
      vertex 6.61229 7.47821 15
    endloop
  endfacet
  facet normal 0 0 1
    outer loop
      vertex 7.17054 11.8847 15
      vertex 6.31214 7.56926 15
      vertex 6.46445 7.5311 15
    endloop
  endfacet
  facet normal 0 0 1
    outer loop
      vertex 6.5881 11.9711 15
      vertex 6.15683 7.59229 15
      vertex 6.31214 7.56926 15
    endloop
  endfacet
  facet normal 0 0 1
    outer loop
      vertex 6 12 15
      vertex 6.15683 7.59229 15
      vertex 6.5881 11.9711 15
    endloop
  endfacet
  facet normal 0 0 1
    outer loop
      vertex 6 12 15
      vertex 6 7.6 15
      vertex 6.15683 7.59229 15
    endloop
  endfacet
  facet normal 0 0 1
    outer loop
      vertex 6 12 15
      vertex 5.84317 7.59229 15
      vertex 6 7.6 15
    endloop
  endfacet
  facet normal -0 0 1
    outer loop
      vertex 5.4119 11.9711 15
      vertex 5.84317 7.59229 15
      vertex 6 12 15
    endloop
  endfacet
  facet normal 0 0 1
    outer loop
      vertex 5.84317 7.59229 15
      vertex 5.4119 11.9711 15
      vertex 5.68785 7.56926 15
    endloop
  endfacet
  facet normal -0 0 1
    outer loop
      vertex 4.82946 11.8847 15
      vertex 5.68785 7.56926 15
      vertex 5.4119 11.9711 15
    endloop
  endfacet
  facet normal 0 0 1
    outer loop
      vertex 5.68785 7.56926 15
      vertex 4.82946 11.8847 15
      vertex 5.53554 7.5311 15
    endloop
  endfacet
  facet normal -0 0 1
    outer loop
      vertex 4.25829 11.7416 15
      vertex 5.53554 7.5311 15
      vertex 4.82946 11.8847 15
    endloop
  endfacet
  facet normal 0 0 1
    outer loop
      vertex 5.53554 7.5311 15
      vertex 4.25829 11.7416 15
      vertex 5.38771 7.47821 15
    endloop
  endfacet
  facet normal -0 0 1
    outer loop
      vertex 3.7039 11.5433 15
      vertex 5.38771 7.47821 15
      vertex 4.25829 11.7416 15
    endloop
  endfacet
  facet normal 0 0 1
    outer loop
      vertex 5.38771 7.47821 15
      vertex 3.7039 11.5433 15
      vertex 5.24576 7.41107 15
    endloop
  endfacet
  facet normal -0 0 1
    outer loop
      vertex 3.17162 11.2915 15
      vertex 5.24576 7.41107 15
      vertex 3.7039 11.5433 15
    endloop
  endfacet
  facet normal 0 0 1
    outer loop
      vertex 5.24576 7.41107 15
      vertex 3.17162 11.2915 15
      vertex 5.11109 7.33035 15
    endloop
  endfacet
  facet normal -0 0 1
    outer loop
      vertex 2.66658 10.9888 15
      vertex 5.11109 7.33035 15
      vertex 3.17162 11.2915 15
    endloop
  endfacet
  facet normal 0 0 1
    outer loop
      vertex 5.11109 7.33035 15
      vertex 2.66658 10.9888 15
      vertex 4.98497 7.23682 15
    endloop
  endfacet
  facet normal -0 0 1
    outer loop
      vertex 2.19364 10.6381 15
      vertex 4.98497 7.23682 15
      vertex 2.66658 10.9888 15
    endloop
  endfacet
  facet normal 0 0 1
    outer loop
      vertex 4.98497 7.23682 15
      vertex 2.19364 10.6381 15
      vertex 4.86863 7.13137 15
    endloop
  endfacet
  facet normal -0 0 1
    outer loop
      vertex 1.75736 10.2426 15
      vertex 4.86863 7.13137 15
      vertex 2.19364 10.6381 15
    endloop
  endfacet
  facet normal 0 0 1
    outer loop
      vertex 4.86863 7.13137 15
      vertex 1.75736 10.2426 15
      vertex 4.76318 7.01503 15
    endloop
  endfacet
  facet normal 0 0 1
    outer loop
      vertex 4.76318 7.01503 15
      vertex 1.36194 9.80636 15
      vertex 4.66965 6.88891 15
    endloop
  endfacet
  facet normal -0 0 1
    outer loop
      vertex 1.36194 9.80636 15
      vertex 4.76318 7.01503 15
      vertex 1.75736 10.2426 15
    endloop
  endfacet
  facet normal -0 0 1
    outer loop
      vertex 7.23682 4.98497 15
      vertex 10.6381 2.19364 15
      vertex 7.33035 5.11109 15
    endloop
  endfacet
  facet normal 0 0 1
    outer loop
      vertex 10.6381 2.19364 15
      vertex 7.23682 4.98497 15
      vertex 10.2426 1.75736 15
    endloop
  endfacet
  facet normal -0 0 1
    outer loop
      vertex 7.13137 4.86863 15
      vertex 10.2426 1.75736 15
      vertex 7.23682 4.98497 15
    endloop
  endfacet
  facet normal 0 0 1
    outer loop
      vertex 10.2426 1.75736 15
      vertex 7.13137 4.86863 15
      vertex 9.80636 1.36194 15
    endloop
  endfacet
  facet normal -0 0 1
    outer loop
      vertex 7.01503 4.76318 15
      vertex 9.80636 1.36194 15
      vertex 7.13137 4.86863 15
    endloop
  endfacet
  facet normal 0 0 1
    outer loop
      vertex 9.80636 1.36194 15
      vertex 7.01503 4.76318 15
      vertex 9.33342 1.01118 15
    endloop
  endfacet
  facet normal -0 0 1
    outer loop
      vertex 6.88891 4.66965 15
      vertex 9.33342 1.01118 15
      vertex 7.01503 4.76318 15
    endloop
  endfacet
  facet normal 0 0 1
    outer loop
      vertex 9.33342 1.01118 15
      vertex 6.88891 4.66965 15
      vertex 8.82838 0.708472 15
    endloop
  endfacet
  facet normal -0 0 1
    outer loop
      vertex 6.75423 4.58893 15
      vertex 8.82838 0.708472 15
      vertex 6.88891 4.66965 15
    endloop
  endfacet
  facet normal 0 0 1
    outer loop
      vertex 8.82838 0.708472 15
      vertex 6.75423 4.58893 15
      vertex 8.2961 0.456722 15
    endloop
  endfacet
  facet normal -0 0 1
    outer loop
      vertex 6.61229 4.52179 15
      vertex 8.2961 0.456722 15
      vertex 6.75423 4.58893 15
    endloop
  endfacet
  facet normal 0 0 1
    outer loop
      vertex 8.2961 0.456722 15
      vertex 6.61229 4.52179 15
      vertex 7.74171 0.258357 15
    endloop
  endfacet
  facet normal -0 0 1
    outer loop
      vertex 6.46445 4.46889 15
      vertex 7.74171 0.258357 15
      vertex 6.61229 4.52179 15
    endloop
  endfacet
  facet normal 0 0 1
    outer loop
      vertex 7.74171 0.258357 15
      vertex 6.46445 4.46889 15
      vertex 7.17054 0.115288 15
    endloop
  endfacet
  facet normal -0 0 1
    outer loop
      vertex 6.31214 4.43074 15
      vertex 7.17054 0.115288 15
      vertex 6.46445 4.46889 15
    endloop
  endfacet
  facet normal 0 0 1
    outer loop
      vertex 7.17054 0.115288 15
      vertex 6.31214 4.43074 15
      vertex 6.5881 0.0288916 15
    endloop
  endfacet
  facet normal -0 0 1
    outer loop
      vertex 6.15683 4.4077 15
      vertex 6.5881 0.0288916 15
      vertex 6.31214 4.43074 15
    endloop
  endfacet
  facet normal -0 0 1
    outer loop
      vertex 6 4.4 15
      vertex 6.5881 0.0288916 15
      vertex 6.15683 4.4077 15
    endloop
  endfacet
  facet normal 0 0 1
    outer loop
      vertex 6 4.4 15
      vertex 6 0 15
      vertex 6.5881 0.0288916 15
    endloop
  endfacet
  facet normal 0 0 1
    outer loop
      vertex 5.84317 4.4077 15
      vertex 6 0 15
      vertex 6 4.4 15
    endloop
  endfacet
  facet normal 0 0 1
    outer loop
      vertex 5.4119 0.0288916 15
      vertex 5.84317 4.4077 15
      vertex 5.68785 4.43074 15
    endloop
  endfacet
  facet normal 0 0 1
    outer loop
      vertex 4.82946 0.115288 15
      vertex 5.68785 4.43074 15
      vertex 5.53554 4.46889 15
    endloop
  endfacet
  facet normal 0 0 1
    outer loop
      vertex 5.84317 4.4077 15
      vertex 5.4119 0.0288916 15
      vertex 6 0 15
    endloop
  endfacet
  facet normal 0 0 1
    outer loop
      vertex 4.25829 0.258357 15
      vertex 5.53554 4.46889 15
      vertex 5.38771 4.52179 15
    endloop
  endfacet
  facet normal 0 0 1
    outer loop
      vertex 3.7039 0.456722 15
      vertex 5.38771 4.52179 15
      vertex 5.24576 4.58893 15
    endloop
  endfacet
  facet normal 0 0 1
    outer loop
      vertex 3.17162 0.708472 15
      vertex 5.24576 4.58893 15
      vertex 5.11109 4.66965 15
    endloop
  endfacet
  facet normal 0 0 1
    outer loop
      vertex 2.66658 1.01118 15
      vertex 5.11109 4.66965 15
      vertex 4.98497 4.76318 15
    endloop
  endfacet
  facet normal 0 0 1
    outer loop
      vertex 2.19364 1.36194 15
      vertex 4.98497 4.76318 15
      vertex 4.86863 4.86863 15
    endloop
  endfacet
  facet normal 0 0 1
    outer loop
      vertex 5.68785 4.43074 15
      vertex 4.82946 0.115288 15
      vertex 5.4119 0.0288916 15
    endloop
  endfacet
  facet normal 0 0 1
    outer loop
      vertex 1.75736 1.75736 15
      vertex 4.86863 4.86863 15
      vertex 4.76318 4.98497 15
    endloop
  endfacet
  facet normal 0 0 1
    outer loop
      vertex 1.36194 2.19364 15
      vertex 4.76318 4.98497 15
      vertex 4.66965 5.11109 15
    endloop
  endfacet
  facet normal 0 0 1
    outer loop
      vertex 1.01118 2.66658 15
      vertex 4.66965 5.11109 15
      vertex 4.58893 5.24576 15
    endloop
  endfacet
  facet normal 0 0 1
    outer loop
      vertex 0.708472 3.17162 15
      vertex 4.58893 5.24576 15
      vertex 4.52179 5.38771 15
    endloop
  endfacet
  facet normal 0 0 1
    outer loop
      vertex 0.456722 3.7039 15
      vertex 4.52179 5.38771 15
      vertex 4.46889 5.53554 15
    endloop
  endfacet
  facet normal 0 0 1
    outer loop
      vertex 0.258357 4.25829 15
      vertex 4.46889 5.53554 15
      vertex 4.43074 5.68785 15
    endloop
  endfacet
  facet normal 0 0 1
    outer loop
      vertex 0.115288 4.82946 15
      vertex 4.43074 5.68785 15
      vertex 4.4077 5.84317 15
    endloop
  endfacet
  facet normal 0 0 1
    outer loop
      vertex 5.53554 4.46889 15
      vertex 4.25829 0.258357 15
      vertex 4.82946 0.115288 15
    endloop
  endfacet
  facet normal 0 0 1
    outer loop
      vertex 0.0288916 5.4119 15
      vertex 4.4077 5.84317 15
      vertex 4.4 6 15
    endloop
  endfacet
  facet normal -0 0 1
    outer loop
      vertex 1.01118 9.33342 15
      vertex 4.66965 6.88891 15
      vertex 1.36194 9.80636 15
    endloop
  endfacet
  facet normal 0 0 1
    outer loop
      vertex 4.66965 6.88891 15
      vertex 1.01118 9.33342 15
      vertex 4.58893 6.75423 15
    endloop
  endfacet
  facet normal 0 0 1
    outer loop
      vertex 5.38771 4.52179 15
      vertex 3.7039 0.456722 15
      vertex 4.25829 0.258357 15
    endloop
  endfacet
  facet normal -0 0 1
    outer loop
      vertex 0.708472 8.82838 15
      vertex 4.58893 6.75423 15
      vertex 1.01118 9.33342 15
    endloop
  endfacet
  facet normal 0 0 1
    outer loop
      vertex 5.24576 4.58893 15
      vertex 3.17162 0.708472 15
      vertex 3.7039 0.456722 15
    endloop
  endfacet
  facet normal 0 0 1
    outer loop
      vertex 4.58893 6.75423 15
      vertex 0.708472 8.82838 15
      vertex 4.52179 6.61229 15
    endloop
  endfacet
  facet normal 0 0 1
    outer loop
      vertex 5.11109 4.66965 15
      vertex 2.66658 1.01118 15
      vertex 3.17162 0.708472 15
    endloop
  endfacet
  facet normal -0 0 1
    outer loop
      vertex 0.456722 8.2961 15
      vertex 4.52179 6.61229 15
      vertex 0.708472 8.82838 15
    endloop
  endfacet
  facet normal 0 0 1
    outer loop
      vertex 4.98497 4.76318 15
      vertex 2.19364 1.36194 15
      vertex 2.66658 1.01118 15
    endloop
  endfacet
  facet normal 0 0 1
    outer loop
      vertex 4.52179 6.61229 15
      vertex 0.456722 8.2961 15
      vertex 4.46889 6.46445 15
    endloop
  endfacet
  facet normal 0 0 1
    outer loop
      vertex 4.86863 4.86863 15
      vertex 1.75736 1.75736 15
      vertex 2.19364 1.36194 15
    endloop
  endfacet
  facet normal -0 0 1
    outer loop
      vertex 0.258357 7.74171 15
      vertex 4.46889 6.46445 15
      vertex 0.456722 8.2961 15
    endloop
  endfacet
  facet normal 0 0 1
    outer loop
      vertex 4.76318 4.98497 15
      vertex 1.36194 2.19364 15
      vertex 1.75736 1.75736 15
    endloop
  endfacet
  facet normal 0 0 1
    outer loop
      vertex 4.46889 6.46445 15
      vertex 0.258357 7.74171 15
      vertex 4.43074 6.31214 15
    endloop
  endfacet
  facet normal 0 0 1
    outer loop
      vertex 4.66965 5.11109 15
      vertex 1.01118 2.66658 15
      vertex 1.36194 2.19364 15
    endloop
  endfacet
  facet normal -0 0 1
    outer loop
      vertex 0.115288 7.17054 15
      vertex 4.43074 6.31214 15
      vertex 0.258357 7.74171 15
    endloop
  endfacet
  facet normal 0 0 1
    outer loop
      vertex 4.58893 5.24576 15
      vertex 0.708472 3.17162 15
      vertex 1.01118 2.66658 15
    endloop
  endfacet
  facet normal 0 0 1
    outer loop
      vertex 4.43074 6.31214 15
      vertex 0.115288 7.17054 15
      vertex 4.4077 6.15683 15
    endloop
  endfacet
  facet normal 0 0 1
    outer loop
      vertex 4.52179 5.38771 15
      vertex 0.456722 3.7039 15
      vertex 0.708472 3.17162 15
    endloop
  endfacet
  facet normal -0 0 1
    outer loop
      vertex 0.0288916 6.5881 15
      vertex 4.4077 6.15683 15
      vertex 0.115288 7.17054 15
    endloop
  endfacet
  facet normal 0 0 1
    outer loop
      vertex 4.46889 5.53554 15
      vertex 0.258357 4.25829 15
      vertex 0.456722 3.7039 15
    endloop
  endfacet
  facet normal 0 0 1
    outer loop
      vertex 4.4077 6.15683 15
      vertex 0.0288916 6.5881 15
      vertex 4.4 6 15
    endloop
  endfacet
  facet normal 0 0 1
    outer loop
      vertex 4.43074 5.68785 15
      vertex 0.115288 4.82946 15
      vertex 0.258357 4.25829 15
    endloop
  endfacet
  facet normal 0 0 1
    outer loop
      vertex 0 6 15
      vertex 4.4 6 15
      vertex 0.0288916 6.5881 15
    endloop
  endfacet
  facet normal 0 0 1
    outer loop
      vertex 4.4077 5.84317 15
      vertex 0.0288916 5.4119 15
      vertex 0.115288 4.82946 15
    endloop
  endfacet
  facet normal 0 0 1
    outer loop
      vertex 4.4 6 15
      vertex 0 6 15
      vertex 0.0288916 5.4119 15
    endloop
  endfacet
  facet normal -0.514091 0.857736 0
    outer loop
      vertex 3.17162 11.2915 15
      vertex 2.66658 10.9888 11.507
      vertex 2.66658 10.9888 15
    endloop
  endfacet
  facet normal -0.514091 0.857736 0
    outer loop
      vertex 2.66658 10.9888 11.507
      vertex 3.17162 11.2915 15
      vertex 3.17162 11.2915 11.3178
    endloop
  endfacet
  facet normal -0.903989 0.427556 0
    outer loop
      vertex 0.456722 8.2961 3
      vertex 0.708472 8.82838 15
      vertex 0.708472 8.82838 3
    endloop
  endfacet
  facet normal -0.903989 0.427556 0
    outer loop
      vertex 0.708472 8.82838 15
      vertex 0.456722 8.2961 3
      vertex 0.456722 8.2961 15
    endloop
  endfacet
  facet normal -0.514101 -0.85773 0
    outer loop
      vertex 2.66658 1.01118 3
      vertex 3.17162 0.708472 15
      vertex 2.66658 1.01118 15
    endloop
  endfacet
  facet normal -0.514101 -0.85773 -0
    outer loop
      vertex 3.17162 0.708472 15
      vertex 2.66658 1.01118 3
      vertex 3.17162 0.708472 3
    endloop
  endfacet
  facet normal 0.529998 0 0.847999
    outer loop
      vertex 11.7771 4.4 11.0143
      vertex 23 2 4
      vertex 23 4.4 4
    endloop
  endfacet
  facet normal 0.530009 7.12211e-05 0.847992
    outer loop
      vertex 11.7416 4.25829 11.0365
      vertex 23 2 4
      vertex 11.7771 4.4 11.0143
    endloop
  endfacet
  facet normal 0.530012 8.91996e-05 0.84799
    outer loop
      vertex 11.5433 3.7039 11.1605
      vertex 23 2 4
      vertex 11.7416 4.25829 11.0365
    endloop
  endfacet
  facet normal 0.52999 -0.000113677 0.848004
    outer loop
      vertex 11.2915 3.17162 11.3178
      vertex 23 2 4
      vertex 11.5433 3.7039 11.1605
    endloop
  endfacet
  facet normal 0.53 2.03127e-05 0.847998
    outer loop
      vertex 10.9888 2.66658 11.507
      vertex 23 2 4
      vertex 11.2915 3.17162 11.3178
    endloop
  endfacet
  facet normal 0.53 2.1527e-05 0.847998
    outer loop
      vertex 10.6381 2.19364 11.7262
      vertex 23 2 4
      vertex 10.9888 2.66658 11.507
    endloop
  endfacet
  facet normal 0.53 5.32081e-05 0.847998
    outer loop
      vertex 23 2 4
      vertex 10.6381 2.19364 11.7262
      vertex 10.4626 2 11.8359
    endloop
  endfacet
  facet normal 1 -0 0
    outer loop
      vertex 23 2 4
      vertex 23 4.4 3
      vertex 23 4.4 4
    endloop
  endfacet
  facet normal 1 0 0
    outer loop
      vertex 23 4.4 3
      vertex 23 2 4
      vertex 23 2 3
    endloop
  endfacet
  facet normal 0 -1 0
    outer loop
      vertex 10.4626 2 3
      vertex 23 2 4
      vertex 10.4626 2 11.8359
    endloop
  endfacet
  facet normal 0 -1 -0
    outer loop
      vertex 23 2 4
      vertex 10.4626 2 3
      vertex 23 2 3
    endloop
  endfacet
  facet normal 0 1 0
    outer loop
      vertex 20.6 4.4 3
      vertex 23 4.4 4
      vertex 23 4.4 3
    endloop
  endfacet
  facet normal 0 1 0
    outer loop
      vertex 23 4.4 4
      vertex 20.6 4.4 3
      vertex 11.7771 4.4 11.0143
    endloop
  endfacet
  facet normal 0 1 0
    outer loop
      vertex 11.7771 4.4 11.0143
      vertex 20.6 4.4 3
      vertex 11.7771 4.4 3
    endloop
  endfacet
  facet normal -0 0.529998 0.847999
    outer loop
      vertex 2 23 4
      vertex 4.4 11.7771 11.0143
      vertex 4.4 23 4
    endloop
  endfacet
  facet normal 7.12211e-05 0.530009 0.847992
    outer loop
      vertex 4.4 11.7771 11.0143
      vertex 2 23 4
      vertex 4.25829 11.7416 11.0365
    endloop
  endfacet
  facet normal 8.91996e-05 0.530012 0.84799
    outer loop
      vertex 4.25829 11.7416 11.0365
      vertex 2 23 4
      vertex 3.7039 11.5433 11.1605
    endloop
  endfacet
  facet normal -0.000113677 0.52999 0.848004
    outer loop
      vertex 3.7039 11.5433 11.1605
      vertex 2 23 4
      vertex 3.17162 11.2915 11.3178
    endloop
  endfacet
  facet normal 2.03127e-05 0.53 0.847998
    outer loop
      vertex 3.17162 11.2915 11.3178
      vertex 2 23 4
      vertex 2.66658 10.9888 11.507
    endloop
  endfacet
  facet normal 2.1527e-05 0.53 0.847998
    outer loop
      vertex 2.66658 10.9888 11.507
      vertex 2 23 4
      vertex 2.19364 10.6381 11.7262
    endloop
  endfacet
  facet normal 5.32081e-05 0.53 0.847998
    outer loop
      vertex 2.19364 10.6381 11.7262
      vertex 2 23 4
      vertex 2 10.4626 11.8359
    endloop
  endfacet
  facet normal 1 0 0
    outer loop
      vertex 4.4 23 4
      vertex 4.4 20.6 3
      vertex 4.4 23 3
    endloop
  endfacet
  facet normal 1 0 0
    outer loop
      vertex 4.4 11.7771 11.0143
      vertex 4.4 20.6 3
      vertex 4.4 23 4
    endloop
  endfacet
  facet normal 1 0 0
    outer loop
      vertex 4.4 20.6 3
      vertex 4.4 11.7771 11.0143
      vertex 4.4 11.7771 3
    endloop
  endfacet
  facet normal -1 0 0
    outer loop
      vertex 2 10.4626 3
      vertex 2 23 4
      vertex 2 23 3
    endloop
  endfacet
  facet normal -1 -0 0
    outer loop
      vertex 2 23 4
      vertex 2 10.4626 3
      vertex 2 10.4626 11.8359
    endloop
  endfacet
  facet normal 0 1 -0
    outer loop
      vertex 4.4 23 3
      vertex 2 23 4
      vertex 4.4 23 4
    endloop
  endfacet
  facet normal 0 1 0
    outer loop
      vertex 2 23 4
      vertex 4.4 23 3
      vertex 2 23 3
    endloop
  endfacet
  facet normal -0.336845 -0.94156 0
    outer loop
      vertex 6.46445 7.5311 0
      vertex 6.61229 7.47821 15
      vertex 6.46445 7.5311 15
    endloop
  endfacet
  facet normal -0.336845 -0.94156 -0
    outer loop
      vertex 6.61229 7.47821 15
      vertex 6.46445 7.5311 0
      vertex 6.61229 7.47821 0
    endloop
  endfacet
  facet normal -0.740933 0.671578 0
    outer loop
      vertex 7.13137 4.86863 0
      vertex 7.23682 4.98497 15
      vertex 7.23682 4.98497 0
    endloop
  endfacet
  facet normal -0.740933 0.671578 0
    outer loop
      vertex 7.23682 4.98497 15
      vertex 7.13137 4.86863 0
      vertex 7.13137 4.86863 15
    endloop
  endfacet
  facet normal -0.803229 0.595671 0
    outer loop
      vertex 7.23682 4.98497 0
      vertex 7.33035 5.11109 15
      vertex 7.33035 5.11109 0
    endloop
  endfacet
  facet normal -0.803229 0.595671 0
    outer loop
      vertex 7.33035 5.11109 15
      vertex 7.23682 4.98497 0
      vertex 7.23682 4.98497 15
    endloop
  endfacet
  facet normal -0.0491022 -0.998794 0
    outer loop
      vertex 6 7.6 0
      vertex 6.15683 7.59229 15
      vertex 6 7.6 15
    endloop
  endfacet
  facet normal -0.0491022 -0.998794 -0
    outer loop
      vertex 6.15683 7.59229 15
      vertex 6 7.6 0
      vertex 6.15683 7.59229 0
    endloop
  endfacet
  facet normal -0.14668 -0.989184 0
    outer loop
      vertex 6.15683 7.59229 0
      vertex 6.31214 7.56926 15
      vertex 6.15683 7.59229 15
    endloop
  endfacet
  facet normal -0.14668 -0.989184 -0
    outer loop
      vertex 6.31214 7.56926 15
      vertex 6.15683 7.59229 0
      vertex 6.31214 7.56926 0
    endloop
  endfacet
  facet normal -0.336901 0.94154 0
    outer loop
      vertex 6.61229 4.52179 0
      vertex 6.46445 4.46889 15
      vertex 6.61229 4.52179 15
    endloop
  endfacet
  facet normal -0.336901 0.94154 0
    outer loop
      vertex 6.46445 4.46889 15
      vertex 6.61229 4.52179 0
      vertex 6.46445 4.46889 0
    endloop
  endfacet
  facet normal -0.903983 0.427569 0
    outer loop
      vertex 7.41107 5.24576 0
      vertex 7.47821 5.38771 15
      vertex 7.47821 5.38771 0
    endloop
  endfacet
  facet normal -0.903983 0.427569 0
    outer loop
      vertex 7.47821 5.38771 15
      vertex 7.41107 5.24576 0
      vertex 7.41107 5.24576 15
    endloop
  endfacet
  facet normal -0.0490387 0.998797 0
    outer loop
      vertex 6.15683 4.4077 0
      vertex 6 4.4 15
      vertex 6.15683 4.4077 15
    endloop
  endfacet
  facet normal -0.0490387 0.998797 0
    outer loop
      vertex 6 4.4 15
      vertex 6.15683 4.4077 0
      vertex 6 4.4 0
    endloop
  endfacet
  facet normal -0.24297 0.970034 0
    outer loop
      vertex 6.46445 4.46889 0
      vertex 6.31214 4.43074 15
      vertex 6.46445 4.46889 15
    endloop
  endfacet
  facet normal -0.24297 0.970034 0
    outer loop
      vertex 6.31214 4.43074 15
      vertex 6.46445 4.46889 0
      vertex 6.31214 4.43074 0
    endloop
  endfacet
  facet normal -0.989184 -0.14668 0
    outer loop
      vertex 7.59229 6.15683 0
      vertex 7.56926 6.31214 15
      vertex 7.56926 6.31214 0
    endloop
  endfacet
  facet normal -0.989184 -0.14668 0
    outer loop
      vertex 7.56926 6.31214 15
      vertex 7.59229 6.15683 0
      vertex 7.59229 6.15683 15
    endloop
  endfacet
  facet normal 0.998797 0.0490387 0
    outer loop
      vertex 4.4077 5.84317 15
      vertex 4.4 6 0
      vertex 4.4 6 15
    endloop
  endfacet
  facet normal 0.998797 0.0490387 0
    outer loop
      vertex 4.4 6 0
      vertex 4.4077 5.84317 15
      vertex 4.4077 5.84317 0
    endloop
  endfacet
  facet normal 0.998797 -0.0490387 0
    outer loop
      vertex 4.4 6 15
      vertex 4.4077 6.15683 0
      vertex 4.4077 6.15683 15
    endloop
  endfacet
  facet normal 0.998797 -0.0490387 0
    outer loop
      vertex 4.4077 6.15683 0
      vertex 4.4 6 15
      vertex 4.4 6 0
    endloop
  endfacet
  facet normal 0.857723 0.514112 0
    outer loop
      vertex 4.66965 5.11109 15
      vertex 4.58893 5.24576 0
      vertex 4.58893 5.24576 15
    endloop
  endfacet
  facet normal 0.857723 0.514112 0
    outer loop
      vertex 4.58893 5.24576 0
      vertex 4.66965 5.11109 15
      vertex 4.66965 5.11109 0
    endloop
  endfacet
  facet normal -0.989185 0.146671 0
    outer loop
      vertex 7.56926 5.68785 0
      vertex 7.59229 5.84317 15
      vertex 7.59229 5.84317 0
    endloop
  endfacet
  facet normal -0.989185 0.146671 0
    outer loop
      vertex 7.59229 5.84317 15
      vertex 7.56926 5.68785 0
      vertex 7.56926 5.68785 15
    endloop
  endfacet
  facet normal -0.671578 -0.740933 0
    outer loop
      vertex 7.01503 7.23682 0
      vertex 7.13137 7.13137 15
      vertex 7.01503 7.23682 15
    endloop
  endfacet
  facet normal -0.671578 -0.740933 -0
    outer loop
      vertex 7.13137 7.13137 15
      vertex 7.01503 7.23682 0
      vertex 7.13137 7.13137 0
    endloop
  endfacet
  facet normal -0.998794 -0.0491022 0
    outer loop
      vertex 7.6 6 0
      vertex 7.59229 6.15683 15
      vertex 7.59229 6.15683 0
    endloop
  endfacet
  facet normal -0.998794 -0.0491022 0
    outer loop
      vertex 7.59229 6.15683 15
      vertex 7.6 6 0
      vertex 7.6 6 15
    endloop
  endfacet
  facet normal -0.94156 -0.336845 0
    outer loop
      vertex 7.5311 6.46445 0
      vertex 7.47821 6.61229 15
      vertex 7.47821 6.61229 0
    endloop
  endfacet
  facet normal -0.94156 -0.336845 0
    outer loop
      vertex 7.47821 6.61229 15
      vertex 7.5311 6.46445 0
      vertex 7.5311 6.46445 15
    endloop
  endfacet
  facet normal 0.24303 -0.970019 0
    outer loop
      vertex 5.53554 7.5311 0
      vertex 5.68785 7.56926 15
      vertex 5.53554 7.5311 15
    endloop
  endfacet
  facet normal 0.24303 -0.970019 0
    outer loop
      vertex 5.68785 7.56926 15
      vertex 5.53554 7.5311 0
      vertex 5.68785 7.56926 0
    endloop
  endfacet
  facet normal 0.24297 0.970034 -0
    outer loop
      vertex 5.68785 4.43074 0
      vertex 5.53554 4.46889 15
      vertex 5.68785 4.43074 15
    endloop
  endfacet
  facet normal 0.24297 0.970034 0
    outer loop
      vertex 5.53554 4.46889 15
      vertex 5.68785 4.43074 0
      vertex 5.53554 4.46889 0
    endloop
  endfacet
  facet normal -0.998794 0.0491022 0
    outer loop
      vertex 7.59229 5.84317 0
      vertex 7.6 6 15
      vertex 7.6 6 0
    endloop
  endfacet
  facet normal -0.998794 0.0491022 0
    outer loop
      vertex 7.6 6 15
      vertex 7.59229 5.84317 0
      vertex 7.59229 5.84317 15
    endloop
  endfacet
  facet normal -0.970019 -0.24303 0
    outer loop
      vertex 7.56926 6.31214 0
      vertex 7.5311 6.46445 15
      vertex 7.5311 6.46445 0
    endloop
  endfacet
  facet normal -0.970019 -0.24303 0
    outer loop
      vertex 7.5311 6.46445 15
      vertex 7.56926 6.31214 0
      vertex 7.56926 6.31214 15
    endloop
  endfacet
  facet normal 0.146671 -0.989185 0
    outer loop
      vertex 5.68785 7.56926 0
      vertex 5.84317 7.59229 15
      vertex 5.68785 7.56926 15
    endloop
  endfacet
  facet normal 0.146671 -0.989185 0
    outer loop
      vertex 5.84317 7.59229 15
      vertex 5.68785 7.56926 0
      vertex 5.84317 7.59229 0
    endloop
  endfacet
  facet normal -0.595671 0.803229 0
    outer loop
      vertex 7.01503 4.76318 0
      vertex 6.88891 4.66965 15
      vertex 7.01503 4.76318 15
    endloop
  endfacet
  facet normal -0.595671 0.803229 0
    outer loop
      vertex 6.88891 4.66965 15
      vertex 7.01503 4.76318 0
      vertex 6.88891 4.66965 0
    endloop
  endfacet
  facet normal -0.803229 -0.595671 0
    outer loop
      vertex 7.33035 6.88891 0
      vertex 7.23682 7.01503 15
      vertex 7.23682 7.01503 0
    endloop
  endfacet
  facet normal -0.803229 -0.595671 0
    outer loop
      vertex 7.23682 7.01503 15
      vertex 7.33035 6.88891 0
      vertex 7.33035 6.88891 15
    endloop
  endfacet
  facet normal 0.595671 -0.803229 0
    outer loop
      vertex 4.98497 7.23682 0
      vertex 5.11109 7.33035 15
      vertex 4.98497 7.23682 15
    endloop
  endfacet
  facet normal 0.595671 -0.803229 0
    outer loop
      vertex 5.11109 7.33035 15
      vertex 4.98497 7.23682 0
      vertex 5.11109 7.33035 0
    endloop
  endfacet
  facet normal 0.336865 -0.941553 0
    outer loop
      vertex 5.38771 7.47821 0
      vertex 5.53554 7.5311 15
      vertex 5.38771 7.47821 15
    endloop
  endfacet
  facet normal 0.336865 -0.941553 0
    outer loop
      vertex 5.53554 7.5311 15
      vertex 5.38771 7.47821 0
      vertex 5.53554 7.5311 0
    endloop
  endfacet
  facet normal 0.989176 0.146733 0
    outer loop
      vertex 4.43074 5.68785 15
      vertex 4.4077 5.84317 0
      vertex 4.4077 5.84317 15
    endloop
  endfacet
  facet normal 0.989176 0.146733 0
    outer loop
      vertex 4.4077 5.84317 0
      vertex 4.43074 5.68785 15
      vertex 4.43074 5.68785 0
    endloop
  endfacet
  facet normal -0.514084 0.85774 0
    outer loop
      vertex 6.88891 4.66965 0
      vertex 6.75423 4.58893 15
      vertex 6.88891 4.66965 15
    endloop
  endfacet
  facet normal -0.514084 0.85774 0
    outer loop
      vertex 6.75423 4.58893 15
      vertex 6.88891 4.66965 0
      vertex 6.75423 4.58893 0
    endloop
  endfacet
  facet normal 0.740933 -0.671578 0
    outer loop
      vertex 4.76318 7.01503 15
      vertex 4.86863 7.13137 0
      vertex 4.86863 7.13137 15
    endloop
  endfacet
  facet normal 0.740933 -0.671578 0
    outer loop
      vertex 4.86863 7.13137 0
      vertex 4.76318 7.01503 15
      vertex 4.76318 7.01503 0
    endloop
  endfacet
  facet normal 0.803229 -0.595671 0
    outer loop
      vertex 4.66965 6.88891 15
      vertex 4.76318 7.01503 0
      vertex 4.76318 7.01503 15
    endloop
  endfacet
  facet normal 0.803229 -0.595671 0
    outer loop
      vertex 4.76318 7.01503 0
      vertex 4.66965 6.88891 15
      vertex 4.66965 6.88891 0
    endloop
  endfacet
  facet normal -0.857723 0.514112 0
    outer loop
      vertex 7.33035 5.11109 0
      vertex 7.41107 5.24576 15
      vertex 7.41107 5.24576 0
    endloop
  endfacet
  facet normal -0.857723 0.514112 0
    outer loop
      vertex 7.41107 5.24576 15
      vertex 7.33035 5.11109 0
      vertex 7.33035 5.11109 15
    endloop
  endfacet
  facet normal -0.85774 -0.514084 0
    outer loop
      vertex 7.41107 6.75423 0
      vertex 7.33035 6.88891 15
      vertex 7.33035 6.88891 0
    endloop
  endfacet
  facet normal -0.85774 -0.514084 0
    outer loop
      vertex 7.33035 6.88891 15
      vertex 7.41107 6.75423 0
      vertex 7.41107 6.75423 15
    endloop
  endfacet
  facet normal -0.146743 0.989175 0
    outer loop
      vertex 6.31214 4.43074 0
      vertex 6.15683 4.4077 15
      vertex 6.31214 4.43074 15
    endloop
  endfacet
  facet normal -0.146743 0.989175 0
    outer loop
      vertex 6.15683 4.4077 15
      vertex 6.31214 4.43074 0
      vertex 6.15683 4.4077 0
    endloop
  endfacet
  facet normal -0.903971 -0.427594 0
    outer loop
      vertex 7.47821 6.61229 0
      vertex 7.41107 6.75423 15
      vertex 7.41107 6.75423 0
    endloop
  endfacet
  facet normal -0.903971 -0.427594 0
    outer loop
      vertex 7.41107 6.75423 15
      vertex 7.47821 6.61229 0
      vertex 7.47821 6.61229 15
    endloop
  endfacet
  facet normal 0.94154 -0.336901 0
    outer loop
      vertex 4.46889 6.46445 15
      vertex 4.52179 6.61229 0
      vertex 4.52179 6.61229 15
    endloop
  endfacet
  facet normal 0.94154 -0.336901 0
    outer loop
      vertex 4.52179 6.61229 0
      vertex 4.46889 6.46445 15
      vertex 4.46889 6.46445 0
    endloop
  endfacet
  facet normal 0.903971 -0.427594 0
    outer loop
      vertex 4.52179 6.61229 15
      vertex 4.58893 6.75423 0
      vertex 4.58893 6.75423 15
    endloop
  endfacet
  facet normal 0.903971 -0.427594 0
    outer loop
      vertex 4.58893 6.75423 0
      vertex 4.52179 6.61229 15
      vertex 4.52179 6.61229 0
    endloop
  endfacet
  facet normal -0.24303 -0.970019 0
    outer loop
      vertex 6.31214 7.56926 0
      vertex 6.46445 7.5311 15
      vertex 6.31214 7.56926 15
    endloop
  endfacet
  facet normal -0.24303 -0.970019 -0
    outer loop
      vertex 6.46445 7.5311 15
      vertex 6.31214 7.56926 0
      vertex 6.46445 7.5311 0
    endloop
  endfacet
  facet normal -0.941553 0.336865 0
    outer loop
      vertex 7.47821 5.38771 0
      vertex 7.5311 5.53554 15
      vertex 7.5311 5.53554 0
    endloop
  endfacet
  facet normal -0.941553 0.336865 0
    outer loop
      vertex 7.5311 5.53554 15
      vertex 7.47821 5.38771 0
      vertex 7.47821 5.38771 15
    endloop
  endfacet
  facet normal 0.970034 -0.24297 0
    outer loop
      vertex 4.43074 6.31214 15
      vertex 4.46889 6.46445 0
      vertex 4.46889 6.46445 15
    endloop
  endfacet
  facet normal 0.970034 -0.24297 0
    outer loop
      vertex 4.46889 6.46445 0
      vertex 4.43074 6.31214 15
      vertex 4.43074 6.31214 0
    endloop
  endfacet
  facet normal -0.740933 -0.671578 0
    outer loop
      vertex 7.23682 7.01503 0
      vertex 7.13137 7.13137 15
      vertex 7.13137 7.13137 0
    endloop
  endfacet
  facet normal -0.740933 -0.671578 0
    outer loop
      vertex 7.13137 7.13137 15
      vertex 7.23682 7.01503 0
      vertex 7.23682 7.01503 15
    endloop
  endfacet
  facet normal -0.595671 -0.803229 0
    outer loop
      vertex 6.88891 7.33035 0
      vertex 7.01503 7.23682 15
      vertex 6.88891 7.33035 15
    endloop
  endfacet
  facet normal -0.595671 -0.803229 -0
    outer loop
      vertex 7.01503 7.23682 15
      vertex 6.88891 7.33035 0
      vertex 7.01503 7.23682 0
    endloop
  endfacet
  facet normal 0.595671 0.803229 -0
    outer loop
      vertex 5.11109 4.66965 0
      vertex 4.98497 4.76318 15
      vertex 5.11109 4.66965 15
    endloop
  endfacet
  facet normal 0.595671 0.803229 0
    outer loop
      vertex 4.98497 4.76318 15
      vertex 5.11109 4.66965 0
      vertex 4.98497 4.76318 0
    endloop
  endfacet
  facet normal -0.427594 -0.903971 0
    outer loop
      vertex 6.61229 7.47821 0
      vertex 6.75423 7.41107 15
      vertex 6.61229 7.47821 15
    endloop
  endfacet
  facet normal -0.427594 -0.903971 -0
    outer loop
      vertex 6.75423 7.41107 15
      vertex 6.61229 7.47821 0
      vertex 6.75423 7.41107 0
    endloop
  endfacet
  facet normal -0.514084 -0.85774 0
    outer loop
      vertex 6.75423 7.41107 0
      vertex 6.88891 7.33035 15
      vertex 6.75423 7.41107 15
    endloop
  endfacet
  facet normal -0.514084 -0.85774 -0
    outer loop
      vertex 6.88891 7.33035 15
      vertex 6.75423 7.41107 0
      vertex 6.88891 7.33035 0
    endloop
  endfacet
  facet normal 0.671578 -0.740933 0
    outer loop
      vertex 4.86863 7.13137 0
      vertex 4.98497 7.23682 15
      vertex 4.86863 7.13137 15
    endloop
  endfacet
  facet normal 0.671578 -0.740933 0
    outer loop
      vertex 4.98497 7.23682 15
      vertex 4.86863 7.13137 0
      vertex 4.98497 7.23682 0
    endloop
  endfacet
  facet normal 0.740933 0.671578 0
    outer loop
      vertex 4.86863 4.86863 15
      vertex 4.76318 4.98497 0
      vertex 4.76318 4.98497 15
    endloop
  endfacet
  facet normal 0.740933 0.671578 0
    outer loop
      vertex 4.76318 4.98497 0
      vertex 4.86863 4.86863 15
      vertex 4.86863 4.86863 0
    endloop
  endfacet
  facet normal 0.671578 0.740933 -0
    outer loop
      vertex 4.98497 4.76318 0
      vertex 4.86863 4.86863 15
      vertex 4.98497 4.76318 15
    endloop
  endfacet
  facet normal 0.671578 0.740933 0
    outer loop
      vertex 4.86863 4.86863 15
      vertex 4.98497 4.76318 0
      vertex 4.86863 4.86863 0
    endloop
  endfacet
  facet normal 0.941533 0.336921 0
    outer loop
      vertex 4.52179 5.38771 15
      vertex 4.46889 5.53554 0
      vertex 4.46889 5.53554 15
    endloop
  endfacet
  facet normal 0.941533 0.336921 0
    outer loop
      vertex 4.46889 5.53554 0
      vertex 4.52179 5.38771 15
      vertex 4.52179 5.38771 0
    endloop
  endfacet
  facet normal 0.427569 -0.903983 0
    outer loop
      vertex 5.24576 7.41107 0
      vertex 5.38771 7.47821 15
      vertex 5.24576 7.41107 15
    endloop
  endfacet
  facet normal 0.427569 -0.903983 0
    outer loop
      vertex 5.38771 7.47821 15
      vertex 5.24576 7.41107 0
      vertex 5.38771 7.47821 0
    endloop
  endfacet
  facet normal 0.903983 0.427569 0
    outer loop
      vertex 4.58893 5.24576 15
      vertex 4.52179 5.38771 0
      vertex 4.52179 5.38771 15
    endloop
  endfacet
  facet normal 0.903983 0.427569 0
    outer loop
      vertex 4.52179 5.38771 0
      vertex 4.58893 5.24576 15
      vertex 4.58893 5.24576 0
    endloop
  endfacet
  facet normal -0.970019 0.24303 0
    outer loop
      vertex 7.5311 5.53554 0
      vertex 7.56926 5.68785 15
      vertex 7.56926 5.68785 0
    endloop
  endfacet
  facet normal -0.970019 0.24303 0
    outer loop
      vertex 7.56926 5.68785 15
      vertex 7.5311 5.53554 0
      vertex 7.5311 5.53554 15
    endloop
  endfacet
  facet normal 0.989175 -0.146743 0
    outer loop
      vertex 4.4077 6.15683 15
      vertex 4.43074 6.31214 0
      vertex 4.43074 6.31214 15
    endloop
  endfacet
  facet normal 0.989175 -0.146743 0
    outer loop
      vertex 4.43074 6.31214 0
      vertex 4.4077 6.15683 15
      vertex 4.4077 6.15683 0
    endloop
  endfacet
  facet normal 0.85774 -0.514084 0
    outer loop
      vertex 4.58893 6.75423 15
      vertex 4.66965 6.88891 0
      vertex 4.66965 6.88891 15
    endloop
  endfacet
  facet normal 0.85774 -0.514084 0
    outer loop
      vertex 4.66965 6.88891 0
      vertex 4.58893 6.75423 15
      vertex 4.58893 6.75423 0
    endloop
  endfacet
  facet normal -0.427594 0.903971 0
    outer loop
      vertex 6.75423 4.58893 0
      vertex 6.61229 4.52179 15
      vertex 6.75423 4.58893 15
    endloop
  endfacet
  facet normal -0.427594 0.903971 0
    outer loop
      vertex 6.61229 4.52179 15
      vertex 6.75423 4.58893 0
      vertex 6.61229 4.52179 0
    endloop
  endfacet
  facet normal 0.427569 0.903983 -0
    outer loop
      vertex 5.38771 4.52179 0
      vertex 5.24576 4.58893 15
      vertex 5.38771 4.52179 15
    endloop
  endfacet
  facet normal 0.427569 0.903983 0
    outer loop
      vertex 5.24576 4.58893 15
      vertex 5.38771 4.52179 0
      vertex 5.24576 4.58893 0
    endloop
  endfacet
  facet normal 0.970034 0.24297 0
    outer loop
      vertex 4.46889 5.53554 15
      vertex 4.43074 5.68785 0
      vertex 4.43074 5.68785 15
    endloop
  endfacet
  facet normal 0.970034 0.24297 0
    outer loop
      vertex 4.43074 5.68785 0
      vertex 4.46889 5.53554 15
      vertex 4.46889 5.53554 0
    endloop
  endfacet
  facet normal 0.0491022 -0.998794 0
    outer loop
      vertex 5.84317 7.59229 0
      vertex 6 7.6 15
      vertex 5.84317 7.59229 15
    endloop
  endfacet
  facet normal 0.0491022 -0.998794 0
    outer loop
      vertex 6 7.6 15
      vertex 5.84317 7.59229 0
      vertex 6 7.6 0
    endloop
  endfacet
  facet normal 0.0490387 0.998797 -0
    outer loop
      vertex 6 4.4 0
      vertex 5.84317 4.4077 15
      vertex 6 4.4 15
    endloop
  endfacet
  facet normal 0.0490387 0.998797 0
    outer loop
      vertex 5.84317 4.4077 15
      vertex 6 4.4 0
      vertex 5.84317 4.4077 0
    endloop
  endfacet
  facet normal 0.803229 0.595671 0
    outer loop
      vertex 4.76318 4.98497 15
      vertex 4.66965 5.11109 0
      vertex 4.66965 5.11109 15
    endloop
  endfacet
  facet normal 0.803229 0.595671 0
    outer loop
      vertex 4.66965 5.11109 0
      vertex 4.76318 4.98497 15
      vertex 4.76318 4.98497 0
    endloop
  endfacet
  facet normal -0.671578 0.740933 0
    outer loop
      vertex 7.13137 4.86863 0
      vertex 7.01503 4.76318 15
      vertex 7.13137 4.86863 15
    endloop
  endfacet
  facet normal -0.671578 0.740933 0
    outer loop
      vertex 7.01503 4.76318 15
      vertex 7.13137 4.86863 0
      vertex 7.01503 4.76318 0
    endloop
  endfacet
  facet normal 0.514112 -0.857723 0
    outer loop
      vertex 5.11109 7.33035 0
      vertex 5.24576 7.41107 15
      vertex 5.11109 7.33035 15
    endloop
  endfacet
  facet normal 0.514112 -0.857723 0
    outer loop
      vertex 5.24576 7.41107 15
      vertex 5.11109 7.33035 0
      vertex 5.24576 7.41107 0
    endloop
  endfacet
  facet normal 0.336921 0.941533 -0
    outer loop
      vertex 5.53554 4.46889 0
      vertex 5.38771 4.52179 15
      vertex 5.53554 4.46889 15
    endloop
  endfacet
  facet normal 0.336921 0.941533 0
    outer loop
      vertex 5.38771 4.52179 15
      vertex 5.53554 4.46889 0
      vertex 5.38771 4.52179 0
    endloop
  endfacet
  facet normal 0.146733 0.989176 -0
    outer loop
      vertex 5.84317 4.4077 0
      vertex 5.68785 4.43074 15
      vertex 5.84317 4.4077 15
    endloop
  endfacet
  facet normal 0.146733 0.989176 0
    outer loop
      vertex 5.68785 4.43074 15
      vertex 5.84317 4.4077 0
      vertex 5.68785 4.43074 0
    endloop
  endfacet
  facet normal 0.514112 0.857723 -0
    outer loop
      vertex 5.24576 4.58893 0
      vertex 5.11109 4.66965 15
      vertex 5.24576 4.58893 15
    endloop
  endfacet
  facet normal 0.514112 0.857723 0
    outer loop
      vertex 5.11109 4.66965 15
      vertex 5.24576 4.58893 0
      vertex 5.11109 4.66965 0
    endloop
  endfacet
endsolid OpenSCAD_Model
